<?xml version="1.0" encoding="utf-8"?>
<svg version="1.2" baseProfile="tiny" id="Layer_1" xmlns="http://www.w3.org/2000/svg" xmlns:xlink="http://www.w3.org/1999/xlink"
 x="0px" y="0px" width="200px" height="200px" viewBox="0 0 200 200" overflow="scroll" xml:space="preserve">
<g>
<path fill="#AADFB1" d="M2.49,121.42c0.1-0.1,0.3-0.3,0.4-0.4c0.4,0.7,0.5,1.39,0,2.09c-0.1-0.1-0.2-0.3-0.4-0.4
C2.49,122.32,2.49,121.82,2.49,121.42z"/>
<path fill="#FFFFFF" d="M107.92,10.02c0.4,0,5.87,0,6.27,0c2.79,0.3,5.67,0.6,8.46,1.3c5.47,1.29,10.55,3.38,15.33,6.37
c1.29,0.8,2.59,1.79,3.98,2.59c0.8,0.6,1.49,1.3,2.29,1.89c7.87,6.77,13.14,15.03,15.93,24.99c0.2,0.8,0.6,1.19,1.3,1.59
c2.99,1.79,5.87,3.58,8.76,5.38c0.6,0.3,1.09,0.7,1.59,1.2c2.79,2.39,5.77,4.58,8.76,6.67c3.19,2.29,5.97,4.98,8.26,8.06
c0.1,0,0.1,0.1,0.1,0.1s0,0.1-0.1,0.1c-0.5-0.2-0.9-0.5-1.39-0.8c-0.7-0.4-1.29-0.8-1.89-1.19c-3.29-2.19-6.77-4.08-10.55-5.38
c-0.2-0.1-0.3,0-0.2,0.2c1.3,2.19,2.89,4.28,4.38,6.27c3.49,4.68,7.17,9.16,10.75,13.74c1.49,1.99,2.99,3.98,4.28,6.17
c0.5,0.9,1,1.79,1.29,2.69c0.5,1.19,0.5,2.49,0.4,3.78c0,0.4-0.2,0.5-0.6,0.4c-2.09-0.7-4.08-0.1-6.07,0.8
c-2.69,1.09-5.08,2.69-7.47,4.28c-2.49,1.69-4.88,3.48-7.27,5.38c-0.4,0.3-0.6,0.7-0.6,1.19c-0.1,5.38-0.1,10.65,0,16.03
c0.1,2.49,0.1,4.98,0.3,7.37c0,0.7-0.2,1.09-0.7,1.49c-5.08,4.38-10.35,8.76-15.63,13.04c-8.96,7.37-18.02,14.63-26.88,22.3
c-5.67,4.88-11.15,9.96-16.13,15.43c-0.1,0.1-0.2,0.2-0.2,0.2c-0.2,0.1-0.3-0.1-0.4-0.2c-7.37-8.76-15.93-16.23-24.99-23.2
c-6.87-5.28-13.94-10.35-21-15.43c-5.58-4.08-11.15-8.26-16.63-12.64c-0.6-0.5-0.8-0.9-0.8-1.69c-0.1-6.47-0.2-12.94-0.3-19.41
c0-0.3,0-0.7-0.1-1.09c-0.4,0.1-0.7,0.4-1,0.6c-12.14,7.67-24.39,15.23-36.54,22.9c-1.49,0.89-2.19,0.89-3.58-0.2
c-0.2-0.2-0.5-0.4-0.7-0.6c-2.49-2.59-4.28-5.47-5.57-8.86c-0.1-0.3-0.1-0.6-0.2-0.8c-0.1-0.7-0.2-1.39,0-2.09
c0.2-0.6,0.7-0.8,1.19-1.19c10.45-6.57,21.01-13.14,31.46-19.71c0.5-0.3,1.09-0.7,1.59-1c-0.2-0.1-0.2-0.2-0.3-0.3
c-1.39-0.8-2.89-1.49-4.48-1.99c-1.29-0.4-2.59-0.5-3.88-0.2c-0.8,0.2-0.8,0.2-0.9-0.7c-0.2-1.59,0.2-2.99,0.8-4.38
c1.09-2.39,2.69-4.48,4.18-6.67c3.09-4.18,6.37-8.06,9.56-12.15c2.29-2.89,4.48-5.87,6.47-8.96c0.2-0.3,0.4-0.6,0.6-1
c-0.4,0-0.6,0.1-0.89,0.2c-3.19,1.2-6.17,2.69-9.06,4.58c-1.29,0.8-2.59,1.59-3.88,2.39c-0.1,0.1-0.2,0.1-0.3,0
c1.89-2.69,4.18-5.08,6.87-6.97c3.58-2.69,7.27-5.27,10.65-8.16c0.3-0.3,0.7-0.5,1.09-0.8c2.89-1.69,5.67-3.48,8.56-5.18
c0.5-0.3,0.8-0.7,0.9-1.19c1.79-7.77,5.27-14.63,10.45-20.71c6.97-8.06,15.63-13.14,25.88-15.63
C102.25,10.62,105.13,10.22,107.92,10.02"/>
<path fill="#85D290" d="M188.75,70.35c0,0,0-0.1,0-0.2c0.1,0,0.2,0.1,0.1,0.3C188.86,70.45,188.86,70.35,188.75,70.35z"/>
<path fill="#9AD9A3" d="M35.15,70.25c-0.1,0.1-0.2,0.2-0.3,0.1c-0.1,0,0-0.1,0.1-0.1C34.95,70.05,35.05,70.05,35.15,70.25z"/>
<path fill="#D0EED4" d="M35.15,70.25c-0.1,0-0.2,0-0.2,0c0-0.1,0.1-0.2,0.2-0.2c0.1,0,0.2,0,0.3,0
C35.25,70.05,35.15,70.15,35.15,70.25z"/>
<path fill="#1D75BD" d="M97.96,147.21c0-0.1,0-0.1-0.1-0.2c0-0.1-0.1-0.2-0.1-0.2c-1.1-1.49-2.09-3.09-3.19-4.58
c-0.8-1-0.9-2.09-0.7-3.29c0.3-1.59,0.8-3.18,1.39-4.68c1.59-4.08,3.68-8.06,5.77-11.95c2.29-4.38,4.68-8.66,6.87-13.04
c0.3-0.5,0.5-0.79,1.19-0.7c1.89,0.1,3.78,0.2,5.67,0.1c0.4,0,0.8,0.1,1,0.5c3.28,6.57,7.07,13.04,10.25,19.71
c1.19,2.49,2.29,4.98,3.08,7.57c0.3,0.9,0.4,1.69,0.6,2.59c0.1,0.9,0,1.79-0.6,2.59c-1.19,1.59-2.29,3.29-3.38,4.98
c0,0.2,0,0.3,0.2,0.2c6.27-4.28,12.24-8.86,18.02-13.74c6.67-5.67,13.24-11.45,19.81-17.22c2.19-1.89,4.38-3.68,6.57-5.57
c0.2-0.2,0.4-0.5,0.8-0.5c0.2,0.3,0.1,0.6,0.1,0.8c0,4.48,0,8.96,0,13.44c0,2.09,0.1,4.08,0.2,6.17c0,0.7-0.2,1.2-0.7,1.59
c-3.98,3.38-8.06,6.77-12.14,10.15c-9.26,7.57-18.62,15.13-27.67,22.9c-5.38,4.58-10.55,9.36-15.43,14.43c-0.1,0.1-0.2,0.2-0.3,0.3
c-0.4,0.4-0.5,0.4-0.9,0c-3.68-4.08-7.67-7.96-11.75-11.65c-4.98-4.38-10.16-8.56-15.43-12.54c-7.27-5.48-14.63-10.65-21.9-16.03
c-3.58-2.69-7.17-5.38-10.65-8.16c-0.6-0.4-0.8-0.9-0.8-1.59c0-0.8,0-1.59,0-2.39c-0.1-4.98-0.2-9.96-0.2-14.93
c0-0.3-0.1-0.7,0.1-1.09c0.4,0,0.5,0.3,0.8,0.5c4.78,3.98,9.36,8.06,14.04,12.05c6.27,5.48,12.64,11.05,19.21,16.23
c3.38,2.59,6.77,5.08,10.25,7.47C97.77,147.31,97.86,147.31,97.96,147.21z"/>
<path fill="#1D75BD" d="M132.31,138.55c-0.2-1-0.4-1.89-0.7-2.79c-0.99-3.48-2.59-6.77-4.18-10.05c-2.49-4.98-5.18-9.86-7.77-14.83
c-0.4-0.8-0.9-1.59-1.2-2.49c1.2-0.2,2.39-0.3,3.48-0.6c14.63-2.89,25.88-10.65,33.55-23.49c3.09-5.18,4.98-10.85,5.87-16.83
c0.1-0.7,0.4-1.19,1.09-1.49c2.49-1.3,4.98-2.69,7.47-4.08c0.6-0.3,0.6-0.3,1,0.2c2.89,4.98,6.47,9.56,10.06,14.14
c2.79,3.58,5.77,7.17,8.46,10.85c0.9,1.29,1.79,2.49,2.59,3.88c0.2,0.4,0.5,0.9,0.7,1.39c0.4,0.9,0.4,0.9-0.6,1.09
c-1.69,0.3-3.19,0.9-4.78,1.59c-2.59,1.19-5.08,2.79-7.37,4.38c-5.18,3.58-10.05,7.66-14.93,11.75
c-6.67,5.77-13.34,11.55-20.01,17.32c-3.78,3.29-7.56,6.37-11.55,9.46C133.01,138.15,132.71,138.35,132.31,138.55z"/>
<path fill="#1D75BD" d="M112.9,106.29c-10.35,0-19.71-2.99-28.17-8.96c-7.37-5.18-12.94-11.95-16.53-20.21
c-1.79-4.08-2.99-8.36-3.48-12.74c-0.99-7.96-0.1-15.63,2.89-23.1c3.09-7.77,7.96-14.24,14.63-19.31
c6.57-4.98,13.94-8.06,22.1-9.26c8.86-1.3,17.52-0.1,25.78,3.48c6.27,2.69,11.85,6.57,16.53,11.55
c6.47,6.87,10.55,15.03,12.24,24.29c0.6,3.09,0.8,6.17,0.7,9.26c-0.3,9.36-3.09,17.82-8.46,25.39
c-6.77,9.46-15.93,15.43-27.18,18.22C120.26,105.89,116.58,106.29,112.9,106.29z"/>
<path fill="#1D75BD" d="M105.23,108.08c0,0.5-0.2,0.8-0.4,1.1c-2.89,5.57-5.88,11.05-8.76,16.62c-1.4,2.79-2.79,5.58-3.78,8.56
c-0.6,1.49-1,3.09-1.2,4.68c-0.4,0-0.6-0.3-0.9-0.5c-4.08-3.09-7.96-6.37-11.85-9.76c-7.17-6.17-14.14-12.45-21.41-18.52
c-0.7-0.6-1.39-1.2-2.09-1.79c-0.2-0.2-0.5-0.4-0.7-0.7c0.2-0.3,0.6-0.5,0.9-0.7c2.99-1.89,6.07-3.88,9.06-5.67
c1.19-0.7,1.49-1.59,1.29-2.89c-0.1-0.4-0.2-0.8-0.3-1.19c-0.2-0.5,0-0.7,0.4-0.9c2.79-1.69,5.58-3.48,8.26-5.18
c0.5-0.3,0.7-0.1,0.99,0.2c2.59,2.99,5.58,5.57,8.86,7.86c6.07,4.18,12.84,7.07,20.11,8.36
C104.24,107.88,104.73,107.98,105.23,108.08z"/>
<path fill="#1D75BD" d="M61.53,100.42c-0.8,0.5-1.49,0.9-2.09,1.3c-15.83,9.96-31.56,19.81-47.39,29.77
c-0.89,0.6-0.89,0.6-1.69-0.2c-2.29-2.29-3.98-5.08-5.08-8.16c-0.1-0.2-0.1-0.4-0.2-0.6c-0.1-0.3,0-0.5,0.3-0.7
c0.6-0.3,1.09-0.7,1.69-1.09c15.63-9.85,31.36-19.61,46.99-29.47c0.4-0.3,0.8-0.5,1.29-0.8C56.65,94.25,58.64,97.53,61.53,100.42z"
/>
<path fill="#1D75BD" d="M30.47,93.65c0.1-0.6,0.4-1.09,0.7-1.69c1-1.89,2.29-3.68,3.58-5.48c3.09-4.08,6.37-8.06,9.46-12.15
c2.89-3.78,5.77-7.67,8.26-11.85c0.4-0.6,0.4-0.6,1-0.3c2.99,1.59,5.87,3.19,8.86,4.78c0.4,0.2,0.6,0.5,0.7,0.9
c1.09,5.58,3.09,10.75,5.97,15.63c0.4,0.7,0.4,0.8-0.3,1.19c-2.39,1.49-4.78,2.99-7.27,4.58c-0.6,0.4-0.6,0.4-1.19-0.2
c-0.5-0.6-1.09-1.09-1.79-1.59c-0.99-0.7-1.89-0.7-2.99-0.1c-4.68,2.99-9.46,5.97-14.14,8.86c-0.3,0.2-0.7,0.4-1,0.7
c-0.3,0.2-0.6,0.2-0.99,0c-0.6-0.4-1.19-0.7-1.79-0.99c-2.09-1.09-4.28-2.09-6.67-2.39C30.77,93.75,30.67,93.75,30.47,93.65z"/>
<path fill="#1D75BD" d="M69.59,87.08c0.6,1.09,1.09,1.99,1.79,2.89c0,0.3-0.3,0.4-0.5,0.5c-2.59,1.59-5.18,3.19-7.67,4.88
c-0.7,0.5-0.8,0.5-1.29-0.2c-0.3-0.5-0.6-0.9-0.9-1.4c-0.5-0.89-0.5-0.89,0.4-1.39c1.99-1.29,3.98-2.49,5.97-3.68
C68.1,87.97,68.8,87.58,69.59,87.08z"/>
<path fill="#2F75B6" d="M61.93,57.81c0.1,1.99,0.1,3.98,0.3,6.07c-0.7-0.1-5.18-2.49-6.37-3.38C56.55,60,60.93,58.01,61.93,57.81z"/>
<path fill="#5C9BD5" d="M49.48,59.8c3.29-1.99,6.47-3.98,9.76-5.97c1-0.6,1.89-1.19,3.09-1.89c-0.1,0.9-0.2,1.59-0.2,2.29
c0,0.5-0.4,0.6-0.8,0.7c-2.49,1.09-4.88,2.19-7.37,3.29c-1.39,0.6-2.69,1.19-4.08,1.69C47.79,60.7,47.99,60.7,49.48,59.8z"/>
<path fill="#5C9CD5" d="M172.83,59.6c-1.79-0.7-3.58-1.49-5.27-2.29c-1.79-0.8-3.58-1.69-5.38-2.49c-0.4-0.2-0.7-0.4-0.7-0.9
c0-0.6-0.2-1.2-0.2-1.69c0.1-0.1,0.2-0.1,0.3-0.1c3.88,2.39,7.87,4.88,11.75,7.27C175.42,60.5,175.82,60.9,172.83,59.6z"/>
<path fill="#305697" d="M161.88,57.71c1.79,0.8,3.49,1.59,5.38,2.49c-1.89,0.99-3.58,1.99-5.38,2.89c-0.2-1,0-1.79-0.1-2.69
C161.78,59.6,161.88,58.71,161.88,57.71z"/>
<path fill="#AACBE9" d="M57.75,90.16c0.5,0.2,0.7,0.5,0.89,0.8c0.2,0.2,0,0.4-0.2,0.5c-0.2,0.1-0.3-0.1-0.3-0.2
C57.94,90.96,57.84,90.66,57.75,90.16z"/>
<path fill="#CEE1F2" d="M125.74,146.61c-0.1,0.1-0.3,0.4-0.5,0.2c-0.1-0.1,0.1-0.3,0.3-0.4
C125.64,146.51,125.74,146.61,125.74,146.61z"/>
<path fill="#C3DAEF" d="M97.96,147.21c0.1,0,0.3,0.2,0.2,0.3c-0.2,0.1-0.3-0.1-0.4-0.2C97.77,147.21,97.86,147.21,97.96,147.21z"/>
<path fill="#CEE1F2" d="M62.82,98.13c0.1,0,0.1,0.1,0.1,0.1h-0.1C62.72,98.33,62.72,98.23,62.82,98.13L62.82,98.13z"/>
<path fill="#C3DAEF" d="M97.67,146.91c0,0.1,0.1,0.1,0.1,0.2C97.77,147.01,97.77,146.91,97.67,146.91z"/>
<path fill="#FFFFFF" d="M155.31,60.2c-0.2,11.65-4.38,21.7-12.64,29.86c-5.88,5.77-12.84,9.36-20.91,11.05
c-3.78,0.8-7.67,1.09-11.45,0.9c-6.77-0.4-13.14-2.19-19.02-5.48c-7.47-4.08-13.24-9.86-17.42-17.32
c-2.69-4.78-4.38-9.96-5.08-15.43c-0.9-6.47-0.3-12.84,1.89-19.01c3.78-10.65,10.75-18.62,20.91-23.69
c4.98-2.59,10.35-3.98,16.03-4.38c9.86-0.7,18.92,1.59,27.18,6.87c7.07,4.38,12.34,10.35,16.03,17.82
c2.69,5.38,4.18,11.05,4.38,17.02C155.21,58.9,155.31,59.6,155.31,60.2z"/>
<path fill="#2E75B6" d="M103.04,61.99c0.5-0.1,0.9,0.1,1.39,0.1c0.7,0.2,1.39,0.5,2.09-0.1c0.9-0.6,1.69-1.29,2.49-1.89
c0.6-0.1,1-0.9,1.79-0.6c0.2,0.1,0.3,0.3,0.3,0.6c0.2,0.6,0.1,1.09,0.1,1.69c-0.1,2.99,0.1,6.07-0.1,9.06c0,0.3,0,0.6,0.1,0.8
c-0.1,1.49-0.8,2.79-1.79,3.88c-2.39,0.3-4.78,0.5-7.17,0.6c-0.6,0-1.19,0.3-1.79,0.2c-0.7-0.2-1.09-0.8-1.49-1.39
c-5.67-7.07-11.25-14.14-16.82-21.21c-0.6-0.8-1.29-1.69-2.39-1.89c-0.3-0.1-0.5-0.2-0.7-0.4c-0.1-0.1-0.3-0.2-0.4-0.3
c-0.3-0.2-0.6-0.3-0.89-0.3c-0.1,0-0.2,0-0.3,0c-0.2,0-0.4,0.1-0.6,0.2c-0.6,0.1-1.09,0.3-1.59,0.4c-0.2,0-0.4,0.1-0.6,0.2
c-0.1,0-0.2,0.1-0.4,0.1c-0.1,0-0.3,0.1-0.4,0.1c-0.6,0.2-1.09,0.5-1.69,0.6c-0.3,0.1-0.7,0.3-0.99,0c-0.1-0.1-0.1-0.2,0-0.3
c0.4-2.39,0.99-4.78,1.89-7.07c0.2-0.5,0.5-0.8,0.99-1.09c12.15-5.38,24.19-10.85,36.24-16.23c0.2-0.1,0.4-0.1,0.5-0.2
c0.4,0.2,0.4,0.7,0.4,1.09c0,5.87,0,11.75,0,17.52c0,0.3,0,0.6-0.2,0.8c-0.2,0.5-0.8,0.4-1.19,0.6c-0.3,0-0.6,0.1-0.9,0.2
c-0.1,0-0.3,0-0.4,0c-0.2,0-0.3,0.1-0.5,0.2c-0.1,0-0.1,0.1-0.2,0.1c-0.6,0.3-1.19,0.4-1.79,0.7c-0.3,0.2-0.7,0.3-1,0.5
c-0.4,0.1-0.7,0.3-0.99,0.6c-0.4,0.3-0.9,0.4-1.2,0.9c-0.2,0.2-0.5,0.3-0.6,0.6c0,0.1-0.1,0.1-0.1,0.2s-0.1,0.1-0.2,0.2
c-0.3,0.2-0.3,0.5-0.4,0.8c-0.89,2.69-1.19,5.47-1.09,8.36c0.1,0.1,0.2,0.2,0.2,0.3c0.1,0.2,0.3,0.4,0.3,0.6"/>
<path fill="#9CC1E4" d="M71.09,52.33c0,0.1,0,0.1,0.1,0.2c0.6,0.2,0.99-0.2,1.49-0.3c0.6-0.2,1.1-0.4,1.69-0.6
c0.1,0,0.2-0.1,0.3-0.1c0.3,0,0.5-0.1,0.8-0.2c0.1,0,0.3-0.1,0.4-0.1c1.49,0.1,2.19,1.2,2.99,2.29c0.1,0.1,0.1,0.1,0.2,0.2l0.1,0.1
c0.1,0.1,0.1,0.1,0.2,0.2c0.1,0.1,0.2,0.3,0.3,0.4c0,0.1,0.1,0.1,0.2,0.2l0.1,0.1c0.1,0.1,0.1,0.1,0.2,0.2
c2.09,2.79,4.38,5.38,6.47,8.16c0.1,0.1,0.2,0.2,0.3,0.3c0.1,0.1,0.2,0.3,0.3,0.4c0,0.1,0.1,0.1,0.1,0.2c0,0,0,0.1,0.1,0.1
c0.1,0.1,0.1,0.1,0.2,0.2c0.2,0.3,0.4,0.5,0.6,0.8c2.19,2.69,4.28,5.48,6.47,8.16c0.1,0.1,0.1,0.1,0.2,0.2l0.1,0.1
c0.1,0.2,0.3,0.4,0.4,0.6c0.1,0.1,0.2,0.2,0.2,0.3c0.4,0.6,1,1.09,1.3,1.69c0,0.1,0,0.2,0,0.3s-0.1,0.2-0.2,0.3
c-1.79,0.2-3.18,0.2-4.58,0.3c-1.99,0.2-3.98,0.5-5.97,0.4c-0.4,0-0.8,0-1.19,0.1c-0.3,0.1-0.6,0-0.9,0c-0.1,0-0.2-0.1-0.3-0.1
c-0.1-0.1-0.2-0.1-0.2-0.2c-0.1-0.1-0.1-0.1-0.2-0.2c-2.59-3.38-5.18-6.67-7.77-10.06c-0.6-0.9-1.29-1.69-2.09-2.49
c-0.1,0.7-0.1,1.39-0.1,2.09c0,0.2,0,0.4,0,0.6c0,0.7,0,1.4,0.2,1.99c0,1.59,0.1,3.09,0.1,4.68c-0.1,0.1-0.1,0.2-0.2,0.2
c-1.2-2.89-1.99-5.97-2.39-9.06c-0.4-2.69-0.5-5.38-0.4-8.16c0.1-1.49,0.3-2.99,0.4-4.38C70.99,52.53,71.09,52.43,71.09,52.33z"/>
<path fill="#2F5597" d="M110.81,47.36c0-6.57,0-13.04,0-19.61c0.5-0.4,0.9-0.4,1.49-0.1c7.07,3.28,14.13,6.47,21.21,9.66
c0.1,0.1,0.2,0.1,0.3,0.2v0.1c-0.6,0.6-1.49,0.3-2.09,0.8c-0.5,0.2-1,0.4-1.39,0.8c-0.9,0.4-1.49,1-2.19,1.69
c-1.79,1.69-3.58,3.38-5.47,4.98c-1.1,0.99-1.99,2.29-3.39,2.79c-0.5-0.1-1.09-0.2-1.59-0.3c-0.3,0-0.6-0.2-1-0.2
c-1.79-0.1-3.48-0.7-5.28-0.6C111.11,47.66,110.91,47.66,110.81,47.36z"/>
<path fill="#7BAFDD" d="M103.34,75.93c1.69-0.2,3.38-0.3,5.18-0.5c0.4,0,0.8,0.1,1.2-0.1c0.1-0.1,0.2-0.1,0.3-0.1
c0.3,0,0.8-0.1,0.9,0.3c0.1,0.4-0.1,0.7-0.4,0.9c-1.39,1.69-2.89,3.38-4.28,5.08c-0.9,1.09-1.79,2.09-2.69,3.19
c-0.5,0.6-0.99,1.3-1.89,1.09c-2.99,0.3-5.97,0.5-8.96,0.8c-1.09,0.1-2.19,0-3.28,0.3c-2.19,0.1-4.48,0.3-6.67,0.6
c-0.2,0-0.4,0-0.7,0c-0.1,0-0.1,0-0.2,0c-1.39-1.39-2.69-2.89-3.78-4.58c1.19-1.79,2.69-3.28,4.08-4.98c0.2-0.3,0.5-0.5,0.9-0.4
c1,0.2,1.89-0.1,2.79-0.1"/>
<path fill="#2F5597" d="M120.26,92.75c0.8-2.39,1.59-4.88,2.39-7.27c0.1-0.4,0.2-0.8,0.3-1.19c0.1-0.1,0-0.3,0.1-0.4
c0,0,0.1-0.1,0-0.1c0.1-0.2,0-0.4,0-0.5c0,0,0-0.1,0.1-0.1h-0.1v0.1c-0.1,0.1-0.1,0.1-0.2,0.2l-0.1,0.1c0,0.1-0.1,0.2-0.1,0.2
c-1.4,2.59-2.49,5.18-3.78,7.87c-0.5,0.99-1,1.89-1.39,2.89c-0.2,0.3-0.3,0.6-0.8,0.99c0.3-1.99,1-3.58,1.4-5.28
c0.2-0.4-0.1-0.8,0.2-1.1c0.2-0.3,0.3-0.6,0.4-0.99l0,0c0,0,0,0,0,0.1c0,0.3-0.2,0.4-0.2,0.7c-0.2,0.3-0.3,0.6-0.6,0.9
c-0.7,1.49-1.29,2.99-1.99,4.48c-0.2,0.3-0.3,0.7-0.5,1c-0.5,0.2-0.6-0.3-0.9-0.5c-0.8-0.8-1.39-1.59-1.89-2.59
c0-0.2,0.1-0.4,0.1-0.6c0.7-1.49,1.89-2.69,2.89-3.98c2.69-3.68,5.28-7.57,7.37-11.65c1.89-3.78,2.79-7.76,3.38-11.95
c0.3-2.39,0.1-4.68-0.2-7.07c0-0.2,0-0.3,0-0.4c0-0.1,0-0.2,0.1-0.3c0.8-1.09,1.89-1.79,2.99-2.49c0.3-0.2,0.7-0.2,0.99,0
c0.4,0.5,0.4,1.09,0.5,1.69c0.8,4.48,1.59,8.86,2.39,13.34c0.1,0.7,0.1,1.39-0.1,2.09c-0.6,2.59-1.89,6.07-2.49,6.67
c0-1.09,0.3-1.99,0.5-2.89c0.3-1.59,0.7-3.09,0.9-4.68c0.1-0.2,0.1-0.5,0.1-0.7c0-0.1,0-0.1-0.1-0.2c-0.1,0-0.1,0-0.2,0.1
c-1,2.19-1.69,4.48-2.49,6.67c-1.2,3.28-2.39,6.67-3.58,9.95c-0.1,0.3-0.3,0.6-0.4,1c-0.5,1.09-0.4,0.6-0.2-0.4
c0.5-2.29,1.2-4.58,1.79-6.77c0-0.2,0.1-0.4,0.1-0.6c0.2-0.2,0-0.4,0.2-0.6c0-0.1,0-0.2,0.1-0.3c0.1-0.2,0-0.4,0-0.6
c0-0.1,0.1-0.2,0.1-0.3l0,0c0,0.1,0,0.1,0,0.1c-0.1,0.1-0.2,0.3-0.3,0.4c0,0-0.1,0.1,0,0.1c-0.1,0.1,0,0.3-0.2,0.4
c-1.09,2.29-1.89,4.58-2.89,6.87c-1.09,2.79-2.19,5.58-3.38,8.26C119.77,94.84,120.07,93.65,120.26,92.75z"/>
<path fill="#497DAB" d="M113.5,98.83c0.1,1.39,0.1,1.39-1.29,1.39c-2.79,0-5.67-0.2-8.46-0.8c-0.1-0.1-0.1-0.2-0.2-0.3
c-0.2-1.79-0.3-3.48-0.5-5.28c-0.2-1.99-0.3-3.98-0.5-5.97c-0.2-1.29,0-2.39,0.99-3.48c2.39-2.59,4.58-5.38,6.87-8.06
c0.2-0.2,0.3-0.6,0.7-0.5c0.4,0.1,0.3,0.5,0.4,0.8c0.3,1.1,0.2,2.19,0.3,3.29c0.4,3.58,0.7,7.17,0.89,10.75
c0.2,2.59,0.8,5.18,0.6,7.77C113.4,98.63,113.4,98.73,113.5,98.83z"/>
<path fill="#5B9BD5" d="M103.74,99.22v0.1c-1.79-0.3-3.38-0.8-4.98-1.69c-5.57-2.99-8.46-4.68-12.74-6.97
c-1.59-0.9-2.99-1.89-4.18-3.19h0.1c2.79-0.3,5.67-0.5,8.46-0.8c2.59-0.3,5.28-0.5,7.87-0.7c1.39-0.1,2.69-0.5,4.08-0.1
c0.3,0.9,0.3,1.89,0.4,2.89C103.14,92.26,103.34,95.74,103.74,99.22z"/>
<path fill="#5B9BD5" d="M145.35,38.7c-2.49-1.09-4.98-2.29-7.37-3.38c-5.28-2.39-10.65-4.88-15.93-7.27c-2.89-1.19,0.2-0.3,0.4-0.2
c3.08,0.8,6.07,1.79,9.06,2.69c4.18,1.29,8.36,2.49,12.64,3.58c0.4,0.1,0.7,0.2,1,0.5c1.09,1.49,2.19,2.99,3.09,4.68
c-0.1,0.1-0.1,0.3-0.2,0.4c-0.2,0.2-0.3,0.1-0.5,0.1c-0.1-0.3-0.6-0.7-1-0.6"/>
<path fill="#5B9BD5" d="M75.86,39.09c1-1.89,2.19-3.58,3.48-5.28c0.3-0.4,0.6-0.6,1.09-0.7c6.47-1.4,12.84-3.39,19.31-4.98
c0.2,0,0.4-0.1,0.6-0.1c0.2-0.1,1.49-0.3,0.2,0.2c-5.87,2.69-11.85,5.27-17.72,7.96c-2.29,0.99-4.58,2.09-6.97,3.09
C75.86,39.19,75.77,39.19,75.86,39.09L75.86,39.09z"/>
<path fill="#2F5597" d="M150.43,67.86"/>
<path fill="#2F5597" d="M148.94,69.06c-0.6,0.4-1,0.99-1.69,1.39c-0.2-0.3,0-0.5,0.1-0.7c0.5-0.99,1.09-1.99,1.69-2.89
c0.8-1.09,1.29-2.39,1.99-3.58c0-0.1,0.2-0.2,0.2-0.3l-0.1,0.1c-1.09,0.8-1.89,1.79-2.89,2.69c-0.2,0.2-0.4,0.5-0.99,0.7
c0.7-1.29,1.49-2.29,2.19-3.38c0.7-1.1,1.49-2.19,2.09-3.38c0.6-1.1,1.09-2.29,1.79-3.58c0.3,1.59,0.2,2.99,0.2,4.38
c-0.1,3.28-0.6,6.57-1.49,9.76c-0.1,0.3-0.2,0.7-0.4,0.99c-0.5,1.09-1.49,1.69-2.39,2.39c-0.7,0.5-1.29,0.99-1.19,1.99
c0,0.2-0.1,0.3-0.3,0.4c-0.5,0-0.6-0.4-0.6-0.8c0-0.2,0-0.4,0-0.5c0-0.1,0-0.2,0.1-0.2c0.5-0.8,0.99-1.59,1.59-2.39
c0.6-1.19,0.6-1-0.2-0.2c-0.5,0.4-0.9,0.99-1.49,1.39c-0.3-0.1-0.2-0.4-0.2-0.6c0.8-1,1.59-1.99,2.29-2.99c0.1-0.1,0.1-0.1,0.2-0.2
l0,0c0.1,0,0.1-0.1,0.1-0.2c0,0,0.1-0.1,0.1-0.2c0-0.2,0.5-0.6,0.8-1.09"/>
<path fill="#2F5597" d="M149.33,68.66L149.33,68.66"/>
<path fill="#4C81B1" d="M133.01,70.55c-0.3-1.99-0.7-4.08-0.99-6.07c-0.6-3.38-1.2-6.87-1.79-10.25c-0.1-0.3-0.1-0.6-0.2-0.8
c-0.7-0.6-0.7-1.29-0.6-2.09c0.4-0.7,1.09-1.09,1.69-1.59c0.7-0.4,0.9-0.3,1.09,0.5c0.5,2.09,0.8,4.18,1.09,6.17
c0.2,0.9,0.3,1.79,0.5,2.69c0,0.9,0.3,1.69,0.4,2.59c0.2,1.09,0.5,2.19,0.5,3.38c0,0.1,0,0.1,0,0.1
C134.2,67.07,133.7,68.86,133.01,70.55z"/>
<path fill="#2E75B6" d="M78.05,82.7c0-0.1-0.1-0.1-0.1-0.2c-0.6-1.09-0.5-2.39-0.5-3.48c-0.1-1.99-0.3-3.98-0.3-6.07
c0-0.99-0.4-2.09-0.1-3.09c0.3-0.5,0.5-0.3,0.7,0c1.49,1.89,2.88,3.68,4.28,5.57c0.5,0.7,1.19,1.19,1.39,2.09
c-0.8,0-1.29,0.5-1.79,1.09c-1,1.39-2.19,2.59-3.28,3.88C78.45,82.7,78.25,82.9,78.05,82.7z"/>
<path fill="#4472C4" d="M77.36,69.66c0,1.89,0.2,3.78,0.2,5.67c0.1,2.39,0.4,4.88,0.3,7.27c-0.9-1.09-1.59-2.29-2.19-3.48
c-0.4-1.79-0.4-3.59-0.5-5.38c-0.1-1.89-0.1-3.68-0.2-5.57c0-0.3-0.1-0.6,0.1-0.8c0.1-0.1,0.1-0.2,0.2-0.2c0.2-0.1,0.3,0,0.4,0.1
C76.36,67.96,77.06,68.66,77.36,69.66z"/>
<path fill="#4676A3" d="M75.47,67.17c-0.1,0.2-0.2,0.3-0.1,0.5c0.2,0.7,0.1,1.49,0.1,2.29c0,1.89,0.2,3.78,0.2,5.67
c0,0.9,0.1,1.79,0.1,2.59c0,0.3,0,0.6-0.1,0.9c-1-1.59-1.69-3.19-2.39-4.88h0.1c0-1.59,0-3.29-0.2-4.88c-0.1-1,0-1.99-0.1-2.89
c-0.1-0.6,0-1.09-0.1-1.69c0-0.2,0-0.3,0.2-0.4c0.1,0,0.3,0,0.3,0.1C74.17,65.38,75.17,66.07,75.47,67.17z"/>
<path fill="#4475A1" d="M112.4,82.3c0.2,1.69,0.3,3.28,0.4,4.98c0.1,1.39,0.3,2.79,0.2,4.28c-0.1,0.2-0.1,0.3-0.2,0.5
c0.4,1.3,1.19,2.29,1.89,3.29"/>
<path fill="#4475A1" d="M114.09,97.33c-0.1,0.3-0.1,0.6-0.4,0.8l0,0c0,0.3-0.1,0.5-0.2,0.7c-0.1,0.1-0.2,0.2-0.3,0.4
c-0.7-7.76-1.29-15.43-1.99-23.1c-0.4,0-0.6,0.3-0.8,0.5c-0.7,0.9-1.49,1.69-2.19,2.59c-1.29,1.49-2.49,2.99-3.78,4.48
c-0.4,0.5-0.8,0.99-1.19,1.39c-0.3,0.3-0.4,0.7-0.4,1.09c-0.1,1.19,0.1,2.39,0.3,3.58c0.1,1.19,0.1,2.29,0.3,3.48
c0.2,1.29,0.2,2.59,0.4,3.98c0.1,0.6,0,1.29,0,1.99c-0.3-0.3-0.3-0.8-0.3-1.19c0-0.89-0.1-1.79-0.2-2.59
c-0.2-2.09-0.3-4.18-0.5-6.17c-0.1-1.09-0.2-2.19-0.2-3.28c-0.1-0.3-0.6,0.1-0.6-0.4c0.5,0,0.8-0.3,1.09-0.7
c1.49-1.69,2.89-3.48,4.38-5.17c0.9-1.1,1.79-2.09,2.69-3.19c0.2-0.3,0.5-0.6,0.7-0.9c-0.3-0.3-0.6-0.1-0.8-0.2
c-0.1-0.1-0.1-0.2,0-0.3c0.4-0.5,0.8-0.5,1.29-0.3c0.5,0.2,0.7,0.7,0.7,1.19c0,1.1,0.3,2.19,0.2,3.39c0.5-0.8,0.9-1.49,1.29-2.19
c0.2-0.4,0.4-0.8,1-0.7"/>
<path fill="#9BC0E3" d="M142.07,83.69"/>
<path fill="#9BC0E3" d="M147.04,77.22c0.1-0.2,0.2-0.3,0.3-0.4c0.5-0.1,0.6,0.1,0.7,0.5c0.1,0.5,0.1,1.09,0.3,1.59
c-1.2,1.99-2.39,3.88-3.88,5.77c-0.3,0.4-0.7,0.8-1.29,0.9c0-0.6,0.7-0.7,0.7-1.29c0-0.1,0-0.1,0.1-0.2c0-0.1,0.1-0.1,0.1-0.2
c-0.3,0.2-0.7,0.3-1,0.5c-0.3,0.1-0.5,0.4-0.8,0.6c-0.3,0.1-0.5,0.4-0.8,0.6c-0.5,0.3-0.9,0.7-1.39,1c-0.1,0.1-0.1,0.1-0.2,0.2
l-0.1,0.1c-0.1,0-0.1,0.2-0.2,0.2c-0.1,0-1.49,0.99-1.49,0.99c0-0.1,1.29-1.39,1.29-1.39l0,0c0.1-0.1,0.1-0.1,0.2-0.2l0,0
c0.1-0.1,0.1-0.2,0.2-0.3"/>
<path fill="#9BC0E3" d="M145.25,79.71c0.2-0.2,0.4-0.4,0.6-0.6"/>
<path fill="#9BC0E3" d="M143.76,81.6"/>
<path fill="#315798" d="M143.76,43.67c0,0-0.3,0.89-0.3,0.99c-0.1,0.3-0.1,0.4-0.2,0.8c-0.2,0.7-0.4,1.39-0.6,2.09
c-0.4,0-0.5-0.3-0.7-0.6c-0.4-1.89-0.9-3.78-0.9-5.67c0.1-0.2,0.2-0.4,0.5-0.4c1,0.6,2.19,1,3.19,1.49c0.1,0.1,0.3,0,0.4,0.2
c-0.6,1.99-1.09,4.08-1.69,6.07c-0.5-0.2-0.2-0.5-0.2-0.8c0.1-0.6,0.1-1.2,0.2-1.89"/>
<path fill="#5C9BD5" d="M147.84,75.83c-0.4-1.19,0.1-1.89,1.1-2.49c1-0.7,1.79-1.49,2.69-2.19c-0.2,1.3-0.8,2.49-1.29,3.69
c-0.6,1.39-1.19,2.69-1.89,3.98c-0.5-0.6-0.3-1.49-0.6-2.19c0-0.1,0-0.2,0-0.2c0-0.1,0-0.1,0-0.2c0,0,0-0.1,0.1-0.1v-0.1h-0.1
C147.74,75.93,147.74,75.93,147.84,75.83C147.74,75.83,147.84,75.83,147.84,75.83z"/>
<path fill="#355A9A" d="M129.42,87.87c1.89-2.39,3.58-4.98,5.08-7.57c0.3,0,0.3,0.2,0.2,0.4c-1.29,2.79-2.79,5.28-4.58,7.77
c-0.3,0.1-0.8,0.5-1-0.2c0-0.1,0.1-0.1,0.1-0.1C129.32,87.97,129.32,87.87,129.42,87.87z"/>
<path fill="#355A9A" d="M148.54,60.3c0.4-0.8,1-1.59,1.59-2.39c0.89-1.3,1.79-2.69,2.69-4.08c0.3-0.4,0.3-0.4,0.4,0
c0.3,0.9,0,1.49-0.6,2.19c-1.29,1.4-2.39,2.99-3.68,4.48C147.94,61.39,148.14,61.19,148.54,60.3z"/>
<path fill="#5C91C8" d="M120.26,98.03c1.49-1.59,2.99-3.18,4.58-4.78c0.4-0.2,0.6,0,0.6,0.4c-1.2,1.19-2.29,2.39-3.49,3.58
c-0.4,0.4-0.9,0.5-1.39,0.8C120.36,98.23,120.36,98.13,120.26,98.03z"/>
<path fill="#7B9BC6" d="M140.38,52.83c0.1-1.3,0.1-2.59,0.2-3.88c-0.4,0.2-0.4,0.5-0.5,0.8c-0.5,1.59-0.9,3.29-1.39,4.88
c-0.1,0.3-0.1,0.7-0.3,1c-0.1,0.1-0.2,0.1-0.3,0c-0.2-0.3-0.1-0.7-0.1-1c0.4-1.79,0.99-3.48,1.49-5.28c0.2-0.6,0.4-1.3,1.09-1.19
c0.7,0.1,0.5,0.9,0.6,1.39c0.1,1.29-0.3,2.59-0.4,3.88c0,0.1-0.1,0.2-0.2,0.2c-0.1,0-0.2,0-0.3-0.1
C140.27,53.43,140.27,53.13,140.38,52.83z"/>
<path fill="#8EB0D5" d="M129.12,88.17c0.3,0.2,0.7-0.1,1,0.2c-0.4,0.7-0.89,1.3-1.49,1.89l0,0c-0.2,0.4-0.5,0.8-0.9,0.99
c-0.5-0.1-0.4-0.5-0.4-0.8c0.1-0.2,0.2-0.4,0.4-0.5l0,0c0.2-0.4,0.6-0.8,0.9-1.1l0,0C128.73,88.57,128.93,88.37,129.12,88.17z"/>
<path fill="#96BBDE" d="M146.15,77.42c-0.1,0.1-0.1,0.1-0.2,0.2c-0.1,0.1-0.1,0.1-0.2,0.2c-0.1,0.1-0.2,0.1-0.2,0.2
c-0.1,0.1-0.2,0.2-0.2,0.2c-0.3,0.3-0.6,0.6-0.9,0.8h-0.1c-0.1-0.1-0.1-0.1-0.1-0.2c0-0.1,0-0.2,0.1-0.2l0,0
c0.1-0.1,0.1-0.2,0.2-0.3c0.3-0.3,0.6-0.5,0.8-0.89c0.1-0.3,0.5-0.4,0.3-0.7c0.1-0.3,0.3-0.6,0.5-0.8c0.3,0,0.3-0.3,0.4-0.4
c0.4-0.2,0.2-0.99,0.9-0.7c0.1,0.3,0,0.7,0.4,0.89v0.1c0.1,0-0.1,0.1-0.1,0.1"/>
<path fill="#96BBDE" d="M146.65,76.92c-0.1,0.1-0.1,0.1-0.2,0.2"/>
<path fill="#96BBDE" d="M147.44,76.23c-0.1,0-0.1,0-0.2,0.1c-0.1,0.1-0.1,0.1-0.1,0.2c-0.1,0.1-0.1,0.1-0.2,0.2"/>
<path fill="#4877A2" d="M78.05,82.7c0.7-0.4,1.09-1.09,1.59-1.69c0.8-0.9,1.49-1.79,2.29-2.79c0.4-0.5,0.9-0.8,1.49-0.7
c0-0.1,0.1-0.1,0.2-0.1c0.1,0,0.1,0,0.2,0c0.3,0,0.6,0,1,0c0.3-0.1,0.6-0.1,0.9,0c0.1,0.1,0.1,0.2,0.1,0.3
c-0.8,0.1-1.69,0.3-2.49,0.2c-0.4,0-0.7,0.2-0.9,0.5c-1.09,1.29-2.19,2.69-3.28,3.98c-0.4,0.2-0.6,0.5-1,0.5
C78.15,82.9,78.05,82.8,78.05,82.7z"/>
<path fill="#4F7FAF" d="M125.44,93.75c-0.2-0.2-0.3-0.4-0.6-0.4c0.7-0.9,1.39-1.69,2.19-2.39c0.4-0.1,0.5,0.2,0.6,0.6
C126.93,92.26,126.14,93.05,125.44,93.75z"/>
<path fill="#82A0C8" d="M144.16,79.11c0.4-0.2,0.7-0.6,1.19-1c2.89-2.69,3.68-3.38,0.2,0c-0.9,1-1.79,1.99-2.79,2.89
c-0.2,0-0.3-0.2-0.4-0.4c0.5-0.6,1-1.19,1.59-1.69c0.1-0.1,0.2-0.1,0.3,0C144.16,79.01,144.16,79.01,144.16,79.11L144.16,79.11z"/>
<path fill="#4365A1" d="M150.63,53.23c0.5-1.09,1.09-2.09,1.59-3.28c0.4,0.5,0.4,0.9,0.1,1.29c-0.5,0.7-1,1.49-1.49,2.19
C150.23,54.13,150.53,53.53,150.63,53.23z"/>
<path fill="#7290BD" d="M144.16,75.43c0.1-0.1,0.1-0.1,0.2-0.2c0.1,0,0.2,0.1,0.3,0.3c-0.9,1.09-1.89,2.09-2.89,2.99
c0,0-0.1-0.1-0.2-0.1v-0.1c0.7-0.99,1.59-1.79,2.39-2.69C144.06,75.63,144.16,75.53,144.16,75.43z"/>
<path fill="#809FC7" d="M142.37,47.06c0.2,0.2,0.1,0.5,0.3,0.6c-0.2,1.49-0.7,2.89-1,4.38c-0.1,0.2-0.1,0.5-0.2,0.7
c-0.1,0.1-0.2,0.1-0.3,0.1c-0.1-0.1-0.2-0.1-0.2-0.2c0-1.49,0.5-2.79,0.8-4.18C141.97,47.85,141.77,47.36,142.37,47.06z"/>
<path fill="#5C7DAF" d="M134.7,80.61c0-0.1-0.1-0.3-0.2-0.4c0.6-1.2,1.2-2.39,1.69-3.59c0.2,0,0.3,0,0.2,0.2
C135.99,78.22,135.4,79.41,134.7,80.61z"/>
<path fill="#A0B2D0" d="M147.44,39.79c0.2-0.1,0.3-0.3,0.4-0.4c0.1,0.2,0.2,0.2,0.3,0.4c0,0.1,0,0.1-0.1,0.2
c-0.3,0-0.6,1.4-0.7,1.79c0.1-1.29,0.4-1.89,0-1.39c-0.1,0.2-0.2,0.6-0.3,0.8c-0.3,0.8-0.6,1.49-0.99,2.29
c-0.2-0.1-0.2-0.2-0.3-0.4c-0.1-0.3,0-0.6,0.1-0.9c0.2-0.5,0.4-1.09,0.6-1.59C146.74,40.19,146.84,39.79,147.44,39.79z"/>
<path fill="#7893BF" d="M139.98,86.88c-0.1,0.2-0.5,0.4-0.7,0.6l0,0c-0.59,0.6-1.29,1.1-2.09,1.59c-1.2,0.7-0.2,0-0.2-0.2
c0.7-0.6,1.99-1.89,2.69-2.49c0.1,0,0,0.1,0.1,0.1c0.1,0-1.69,1.79-1.59,1.69"/>
<path fill="#F1F6FB" d="M139.88,89.57c1-0.99,2.09-1.99,2.99-2.89C142.66,87.08,140.77,89.07,139.88,89.57z"/>
<path fill="#4E73B1" d="M114.59,94.74c0-0.1,0.1-0.3,0.2-0.3c0.1,0,0.3-0.1,0.4,0.1c0.1,0.2,0.2,0.4,0.4,0.5
c-0.3,0.8-0.5,1.59-1.09,2.29"/>
<path fill="#7B9BC6" d="M138.18,56.52c-0.3,1.29-0.7,2.49-0.99,3.78c-0.2,0-0.3-0.1-0.4-0.2c0-1.49,0.2-2.99,1.2-4.18
c0.1,0,0.2,0,0.3,0.1c0,0.1,0,0.1,0,0.2C138.18,56.32,138.18,56.42,138.18,56.52z"/>
<path fill="#7E9EC8" d="M145.65,74.63c-0.2,0.1-0.4,0-0.5-0.2c0.2-0.3,0.4-0.6,0.7-0.8c0.1,0,0.2-0.1,0.3-0.2l0,0
c0.1,0,0.1-0.1,0.1-0.2c0.2-0.3,0.4-0.6,0.7-0.8c0.2,0.1,0.3,0.4,0.2,0.6l0,0"/>
<path fill="#6F8CBA" d="M135.89,62.89c0-0.2,0.6-0.2,0.3,0.9c-0.1,0.1-0.1,0.3-0.1,0.4s0,0.2-0.1,0.3c0,0.1-0.1,0.2-0.1,0.3
c-0.1,0.6-0.2,1.09-0.6,1.79c-0.1-0.99,0.2-1.79,0.4-2.49"/>
<path fill="#5581A9" d="M147.64,76.43c0.1-0.1,0.2-0.3,0.3-0.3c0.1,0.9,0.3,1.79,0.4,2.69c0,0.1,0,0.1,0,0.2
c-0.2-0.4-0.1-0.3-0.2-0.5c-0.1-0.4-0.2-0.8-0.2-1.19c0-0.3,0-0.5-0.6-0.4C147.44,76.72,147.54,76.62,147.64,76.43z"/>
<path fill="#7A9AC5" d="M135.99,60.9c0.1,0.1,0.2,0.1,0.2,0.2c0.1,0.3,0,0.6-0.1,0.89c-0.2,0.5-0.3,0.9-0.7,1.19
c-0.2,0.5-0.3,1.1-0.6,1.49c-0.2,0-0.2-0.1-0.3-0.3"/>
<path fill="#7795C1" d="M142.37,80.61c0.2,0.1,0.3,0.2,0.4,0.4c-0.4,0.5-1,0.9-1.49,1.29c-0.1,0-0.2-0.1-0.2-0.2
C141.37,81.6,141.87,81.11,142.37,80.61z"/>
<path fill="#7998C4" d="M136.29,61.19c0.5,0.1,0.4,0.5,0.4,0.8c0,0.5-0.1,0.9-0.4,1.3c-0.1-0.1-0.3-0.1-0.4-0.2"/>
<path fill="#83A1C9" d="M143.06,84.39c0.3-0.5,0.9-0.7,1.39-1.09c0.1-0.1,0.3-0.1,0.4,0c0.1,0.1,0,0.2,0,0.3
c-0.1,0.2-0.2,0.3-0.4,0.4c-0.1,0.1-0.1,0.1-0.2,0.1c-0.2,0.2-0.5,0.2-0.8,0.3c-0.1,0.1-0.2,0.1-0.4,0.2
C142.96,84.49,142.96,84.49,143.06,84.39z"/>
<path fill="#4E6FA6" d="M146.05,42.98c0,0.1,0,0.3,0,0.4c-0.2,0.5-0.3,1.09-0.4,1.59c-0.3-0.5-0.2-0.99-0.1-1.39
c0.1-0.2-0.1-0.6,0.3-0.7C145.95,42.98,146.05,42.98,146.05,42.98z"/>
<path fill="#869DC3" d="M138.38,72.44c-0.3,0.9-0.7,1.79-1.1,2.69c-0.1,0-0.1-0.1-0.2-0.2c0.4-0.9,0.8-1.79,1.09-2.69
C138.28,72.25,138.38,72.25,138.38,72.44z"/>
<path fill="#557EA3" d="M133.8,37.5c0.7,0.1,1.39-0.2,2.09-0.2c0.2,0.2,0.6-0.1,0.6,0.3c-0.7,0.7-1.59,0.6-2.49,0.5
c-0.2-0.1-0.3-0.3-0.3-0.6C133.7,37.6,133.7,37.5,133.8,37.5z"/>
<path fill="#7F9BC4" d="M140.97,54.82c-0.1,0.4-0.1,0.89-0.5,1.19c-0.3-0.5-0.3-0.6-0.2-2.39c0-0.1,0.1-0.1,0.2,0l0,0
c0.4,0.2,0.2,0.7,0.4,0.99C140.87,54.72,140.87,54.72,140.97,54.82z"/>
<path fill="#9AACCC" d="M144.75,42.48c0-0.1,0.8-1.99,0.9-2.29c0.1-0.3,0.3-0.8,0.4-1c0.2,0.2,0,0.3,0.2,0.2
c-0.1,0.8-0.1,0.99-0.1,1.39c0,0.4,0,0.6-0.1,0.9c0,0.1,0,1.19-0.1,1.29c-0.1,0-0.8-0.4-0.9-0.4"/>
<path fill="#849BC1" d="M148.94,43.67c0.1-0.6,0.2-1.1,0.4-1.59c0.4,0.5,0.3,0.7-0.3,1.99C148.94,43.97,149.03,43.77,148.94,43.67z
"/>
<path fill="#4A7297" d="M136.49,37.6c-0.2,0-0.4,0-0.6-0.2c0.7-0.1,1.39-0.3,2.09-0.2c0.1,0.2,0.6-0.1,0.6,0.4
C137.88,38.1,137.19,38.1,136.49,37.6z"/>
<path fill="#8EA2C6" d="M146.84,50.64c-0.2,0.8-0.5,1.59-0.9,2.39c-0.1,0-0.1-0.1-0.2-0.2c0.3-0.8,0.5-1.59,0.9-2.29
C146.74,50.44,146.74,50.54,146.84,50.64z"/>
<path fill="#99ACCC" d="M147.04,49.15c0.3-0.8,0.5-1.59,0.9-2.29c0.1-0.1,0.1-0.1,0.2,0c-0.3,0.8-0.5,1.69-0.89,2.49
C147.14,49.35,147.14,49.25,147.04,49.15z"/>
<path fill="#7F96BF" d="M145.75,52.73c0.1,0.1,0.1,0.1,0.2,0.2c-0.2,0.7-0.4,1.39-0.8,2.09c-0.1,0-0.1-0.1-0.2-0.2
C145.25,54.13,145.45,53.43,145.75,52.73z"/>
<path fill="#7696C2" d="M145.15,74.33c0.2,0.1,0.3,0.1,0.5,0.2c-0.3,0.4-0.6,0.7-0.99,0.99c-0.1-0.1-0.2-0.2-0.3-0.3
C144.55,74.93,144.85,74.63,145.15,74.33z"/>
<path fill="#889EC4" d="M141.37,64.28c0.2-0.6,0.4-1.19,0.7-1.69c0.1,0,0.1,0.1,0.2,0.2c-0.2,0.6-0.4,1.2-0.7,1.79
C141.47,64.48,141.47,64.38,141.37,64.28z"/>
<path fill="#819EC7" d="M141.27,84.69c-0.5,0.7-0.99,1-1.49,1.59c-0.1,0.1-0.1,0.1-0.2,0c0.4-0.7,7.17-8.96,7.77-9.46
c0.1,0-0.4,0.7-0.4,0.7C146.95,77.62,141.57,84.69,141.27,84.69z"/>
<path fill="#839AC1" d="M143.16,60.3c-0.2,0.6-0.4,1.2-0.7,1.79c-0.1,0-0.1-0.1-0.2-0.2c0.2-0.6,0.4-1.2,0.7-1.79
C143.16,60.1,143.16,60.2,143.16,60.3z"/>
<path fill="#738DB9" d="M136.99,74.93c0.1,0.1,0.1,0.1,0.2,0.2c-0.2,0.6-0.4,1.19-0.8,1.69c-0.1-0.1-0.1-0.2-0.2-0.2
C136.49,76.13,136.79,75.53,136.99,74.93z"/>
<path fill="#6589AA" d="M141.57,40.99c-0.1,0.1-0.1,0.3-0.2,0.4c-0.8-0.3-0.6-1-0.6-1.69c0.1-0.2,0.2-0.4,0.5-0.5
c0.2,0.3,0.2,0.6,0.2,1c0,0.1,0,0.3,0.1,0.4C141.47,40.69,141.57,40.88,141.57,40.99z"/>
<path fill="#829FC7" d="M139.58,87.18c0,0,0.4-0.4,0.4-0.5c0.4-0.5,0.9-0.9,1.49-1.09c0.1-0.1,0.1-0.1,0.2,0
c-0.3,0.3-0.6,0.5-1,0.8c-0.1,0.1-0.1,0.1-0.2,0.2"/>
<path fill="#5C82A5" d="M139.98,37.2c0.5,0,0.8,0.3,0.9,0.7c0,0.1-0.1,0.2-0.3,0.3c-0.5-0.3-1.2-0.1-1.39-0.9
C139.48,37.2,139.78,37.4,139.98,37.2z"/>
<path fill="#8EADD3" d="M135.89,61.1c0-0.1,0.5-1.3,0.6-1.39c0.4-0.2,0.3,0.2,0.4,0.4c0.1,0.1,0.1,0.1,0.2,0.2
c-0.1,0.3-0.3,1.49-0.5,1.79"/>
<path fill="#7B9AC5" d="M140.97,54.82h-0.1c-0.1-0.1-0.1-0.2-0.2-0.3c0.1-0.7,0-1.29,0.6-1.79c0.1,0,0.1,0,0.2,0
c0.1,0,0.1,0.1,0.1,0.1c0,0.1,0,0.1,0,0.1C141.27,53.63,141.17,54.23,140.97,54.82z"/>
<path fill="#7B9AC5" d="M144.16,84.19c-0.1,0.6-0.7,0.8-0.89,1.39c-0.1,0.1-0.2,0.2-0.4,0.3c-0.1-0.1-0.1-0.2,0-0.3
c0.3-0.3,0.5-0.6,0.8-0.9C143.76,84.39,143.86,84.09,144.16,84.19z"/>
<path fill="#DEE4EE" d="M136.19,61.89c0,0.5-0.3,0.9-0.3,1.29c0,0.1,0,0.2,0,0.4c0,0.1-0.1,0.1-0.1,0.1c-0.1-0.1-0.1-0.3-0.2-0.4
c0-0.5,0.3-0.9,0.4-1.3C135.89,61.79,136.59,59.8,136.19,61.89z"/>
<path fill="#DAE1EC" d="M117.97,89.57c0-0.4,0.2-0.6,0.4-0.99c0.4,0,0.3,0.2,0.2,0.4c-0.1,0.4-0.2,0.8-0.4,1.09
C118.17,89.97,118.17,89.67,117.97,89.57z"/>
<path fill="#A6B6D3" d="M139.38,69.96c-0.1,0.4-0.3,0.8-0.5,1.19c-0.1,0-0.1-0.1-0.2-0.2c0.1-0.4,0.2-0.8,0.5-1.2
C139.38,69.75,139.38,69.86,139.38,69.96z"/>
<path fill="#406997" d="M127.53,91.46c-0.2-0.2-0.4-0.4-0.6-0.6l0,0c0-0.1,0.1-0.1,0.2-0.2c0.1-0.1,0.1-0.2,0.2-0.2
c0.3,0.2,0.2,0.6,0.4,0.8C127.63,91.36,127.63,91.36,127.53,91.46z"/>
<path fill="#85A1C8" d="M145.35,77.62c-0.2,0.4-0.5,0.7-0.9,0.99c0,0.1-0.1,0.1-0.2,0c0.2-0.4,0.6-0.8,0.9-1.09
C145.25,77.42,145.25,77.52,145.35,77.62z"/>
<path fill="#3A648B" d="M139.98,37.2c-0.2,0.2-0.5,0.1-0.8,0.2c-0.2,0.2-0.5,0.2-0.7,0c-0.2,0-0.4,0-0.6-0.2
C138.68,37.1,139.28,37.1,139.98,37.2z"/>
<path fill="#829FC8" d="M147.44,74.93c-0.5,0-0.5,0.6-0.9,0.8c-0.1,0-0.1-0.1-0.1-0.1c0-0.1,0-0.1,0.1-0.1c0.2-0.3,0.4-0.6,0.6-0.9
c0.1-0.1,0.1-0.1,0.2,0C147.34,74.63,147.44,74.73,147.44,74.93z"/>
<path fill="#4C6DA6" d="M143.26,47.95c0.1,0.3,0,0.6,0.2,0.8c0,0.3-0.1,0.5-0.3,0.8C142.96,48.85,142.96,48.85,143.26,47.95z"/>
<path fill="#F0F2F7" d="M145.75,42.98c-0.2-0.1-0.5-0.2-0.7-0.3c0-0.2,0.3-0.7,0.3-0.9c0.1-0.2,0.5-1.89,0.6-1.99
c0,0.2-0.2,1.69-0.2,1.89"/>
<path fill="#96A9CA" d="M139.48,69.06c0.1-0.4,0.3-0.8,0.5-1.2c0.1,0,0.1,0.1,0.2,0.2c-0.1,0.4-0.3,0.8-0.5,1.19
C139.58,69.26,139.58,69.16,139.48,69.06z"/>
<path fill="#8A9FC4" d="M141.27,65.28c-0.1,0.4-0.2,0.8-0.5,1.19c-0.1,0-0.1-0.1-0.2-0.2c0.1-0.4,0.3-0.8,0.5-1.19
C141.27,65.08,141.27,65.18,141.27,65.28z"/>
<path fill="#A2B3D1" d="M138.38,72.44c-0.1-0.1-0.1-0.1-0.2-0.2c0.1-0.4,0.3-0.8,0.5-1.19c0.1,0,0.1,0.1,0.2,0.2
C138.68,71.75,138.58,72.15,138.38,72.44z"/>
<path fill="#DCE2ED" d="M131.71,68.86c0-0.2,0.1-0.4,0.2-0.6c0.5,0,0.2,0.4,0.2,0.6c-0.1,0.3,0,0.5-0.2,0.8
C131.81,69.36,131.91,69.06,131.71,68.86z"/>
<path fill="#557CA1" d="M140.77,38.2c0.1-0.1,0.1-0.1,0.2-0.2c0,0.1,0,0.1,0.1,0.2c0.1,0.1,0.1,0.3,0.1,0.4c0,0.2,0,0.4,0,0.6
c-0.1,0.1-0.2,0.1-0.3,0.1C140.47,38.89,140.47,38.5,140.77,38.2z"/>
<path fill="#718BB8" d="M139.28,84.19c-0.2,0.4-0.5,0.8-0.89,0.99c-0.1-0.1-0.1-0.2,0-0.3c0.2-0.3,0.4-0.6,0.7-0.8
C139.08,84.19,139.18,84.19,139.28,84.19z"/>
<path fill="#7B9AC5" d="M143.66,81.6c0.1,0,0.1,0,0.2,0"/>
<path fill="#7B9AC5" d="M143.06,82.5c0-0.1,0-0.1,0-0.2"/>
<path fill="#E1E6EF" d="M144.16,84.19c-0.2,0.1-0.4,0.3-0.6,0.4c-0.1-0.1-0.1-0.1-0.2-0.2c0.3-0.2,0.4-0.6,0.8-0.3
C144.26,84.09,144.26,84.19,144.16,84.19L144.16,84.19z"/>
<path fill="#8399C1" d="M147.04,49.15c0.1,0.1,0.1,0.1,0.2,0.2c-0.1,0.3-0.1,0.7-0.4,0.9c-0.1,0.1-0.1,0.1-0.2,0
C146.84,49.85,146.95,49.55,147.04,49.15z"/>
<path fill="#889DC4" d="M140.17,68.06c-0.1-0.1-0.1-0.1-0.2-0.2c0.1-0.3,0.2-0.7,0.4-0.9c0.1,0,0.1,0.1,0.2,0.2
C140.47,67.47,140.27,67.76,140.17,68.06z"/>
<path fill="#849BC2" d="M143.26,59.4c0.1-0.3,0.1-0.6,0.3-0.8c0.1,0,0.1,0.1,0.2,0.2c-0.1,0.3-0.1,0.6-0.3,0.8
C143.36,59.6,143.36,59.5,143.26,59.4z"/>
<path fill="#819EC7" d="M143.06,84.39c0,0.1,0,0.1,0,0.2c-0.3,0.2-0.5,0.4-0.8,0.6c-0.1-0.1-0.1-0.1,0-0.2
C142.46,84.69,142.66,84.49,143.06,84.39z"/>
<path fill="#8CA2C6" d="M144.36,57.31c-0.1,0.3-0.1,0.6-0.3,0.8c-0.1,0-0.1-0.1-0.2-0.2c0.1-0.3,0.1-0.6,0.3-0.8
C144.26,57.11,144.26,57.21,144.36,57.31z"/>
<path fill="#8BA0C5" d="M148.14,46.26c0-0.3,0.1-0.7,0.4-1c0.1-0.1,0.1-0.1,0.2,0c-0.1,0.3-0.2,0.6-0.3,1
C148.34,46.36,148.24,46.36,148.14,46.26z"/>
<path fill="#DFE5EF" d="M126.93,77.42c0-0.2,0.1-0.4,0.2-0.6c0.4,0,0.2,0.2,0.2,0.4c0,0.2,0,0.4-0.2,0.6
C127.13,77.72,127.03,77.52,126.93,77.42z"/>
<path fill="#96A9CA" d="M144.95,55.72c-0.1,0.3-0.1,0.6-0.3,0.8c-0.1,0-0.1-0.1-0.2-0.2c0.1-0.3,0.1-0.6,0.3-0.8
C144.85,55.52,144.85,55.72,144.95,55.72z"/>
<path fill="#728CB9" d="M141.27,65.28c-0.1-0.1-0.1-0.1-0.2-0.2c0.1-0.2,0.2-0.5,0.3-0.7c0.1,0.1,0.1,0.1,0.2,0.2
C141.47,64.78,141.37,64.98,141.27,65.28z"/>
<path fill="#708AB7" d="M144.95,55.72c-0.1-0.1-0.1-0.1-0.2-0.2c0.1-0.2,0.2-0.5,0.3-0.7c0.1,0.1,0.1,0.1,0.2,0.2
C145.05,55.32,145.05,55.52,144.95,55.72z"/>
<path fill="#899FC4" d="M139.48,69.06c0.1,0.1,0.1,0.1,0.2,0.2c-0.1,0.2-0.2,0.5-0.3,0.7c-0.1-0.1-0.1-0.1-0.2-0.2
C139.28,69.56,139.38,69.26,139.48,69.06z"/>
<path fill="#496AA4" d="M148.94,43.67c0.1,0.1,0.1,0.3,0.2,0.4c0,0.1,0,0.3-0.2,0.4c-0.1,0.1-0.1,0.1-0.2,0
C148.84,44.17,148.94,43.87,148.94,43.67z"/>
<path fill="#7A99C4" d="M145.35,77.62c-0.1-0.1-0.1-0.1-0.2-0.2c0.1-0.2,0.99-1.59,1.2-1.79
C146.84,75.43,145.45,77.32,145.35,77.62z"/>
<path fill="#7999C4" d="M142.27,84.99c0,0.1,0,0.1,0,0.2c-0.2,0.1-0.4,0.3-0.6,0.4c-0.1,0-0.1,0-0.2,0
C141.67,85.29,141.97,84.99,142.27,84.99z"/>
<path fill="#7992BC" d="M140.57,67.17c-0.1-0.1-0.1-0.1-0.2-0.2c0.1-0.2,0.2-0.5,0.2-0.7c0.1,0.1,0.1,0.1,0.2,0.2
C140.67,66.67,140.67,66.87,140.57,67.17z"/>
<path fill="#BECADE" d="M114.59,96.24c0,0.2-0.2,0.9-0.2,1.09c-0.1,0-0.3,0-0.4,0c0-0.3,0.3-1.09,0.4-1.3
C114.49,95.94,114.59,96.14,114.59,96.24z"/>
<path fill="#8299C0" d="M148.74,45.37c-0.1,0-0.1,0-0.2,0c0-0.3,0-0.5,0.2-0.8c0.1,0,0.1,0.1,0.2,0.2
C148.94,44.97,148.84,45.17,148.74,45.37z"/>
<path fill="#77A6D5" d="M148.54,40.19c-0.1-0.1-0.2-0.1-0.4-0.2c0-0.1,0-0.1,0-0.2c-0.1-0.2-0.1-0.3,0.1-0.4
C148.44,39.59,148.64,39.89,148.54,40.19z"/>
<path fill="#6D88B6" d="M140.97,82.1c0.1,0.1,0.2,0.1,0.2,0.2c-0.1,0.1-0.1,0.2-0.3,0.2c-0.1,0-0.2,0-0.2,0.1l-0.1-0.1
C140.67,82.3,140.77,82.2,140.97,82.1z"/>
<path fill="#5C89C0" d="M148.24,39.39c0,0.1,0,0.3-0.1,0.4c-0.2,0-0.4-0.2-0.3-0.4c0.1-0.1,0.2-0.1,0.3-0.2
C148.24,39.29,148.24,39.29,148.24,39.39z"/>
<path fill="#DCE3EE" d="M122.95,83.29c0.1-0.1,0.1-0.3,0.2-0.4c0.2,0,0.3,0,0.2,0.2c0,0.2,0,0.4-0.2,0.6
C123.05,83.59,123.05,83.4,122.95,83.29z"/>
<path fill="#627FB1" d="M144.46,56.32c0.1,0.1,0.1,0.1,0.2,0.2c0,0.1,0,0.3-0.2,0.4c-0.1,0.1-0.1,0.1-0.2,0
C144.26,56.71,144.36,56.52,144.46,56.32z"/>
<path fill="#617FB0" d="M143.86,57.91c0.1,0.1,0.1,0.1,0.2,0.2c0,0.1,0,0.3-0.2,0.4c-0.1,0.1-0.1,0.1-0.2,0
C143.76,58.21,143.76,58.01,143.86,57.91z"/>
<path fill="#6280B1" d="M142.27,62.79c-0.1-0.1-0.1-0.1-0.2-0.2c0-0.1,0-0.3,0.2-0.4c0.1-0.1,0.1-0.1,0.2,0
C142.37,62.39,142.37,62.59,142.27,62.79z"/>
<path fill="#99ADCE" d="M142.86,85.58c0,0.1,0,0.2,0,0.3c-0.1,0.1-0.2,0.3-0.3,0.1C142.46,85.78,142.66,85.58,142.86,85.58z"/>
<path fill="#92A6C8" d="M148.14,46.26c0.1,0,0.1,0,0.2,0c-0.1,0.2-0.1,0.4-0.2,0.6c-0.1,0-0.1,0-0.2,0
C147.94,46.66,148.04,46.46,148.14,46.26z"/>
<path fill="#416C98" d="M134.7,64.48c0.1,0.1,0.1,0.2,0.2,0.2c0,0.2-0.1,0.4-0.2,0.6v-0.1C134.6,64.88,134.5,64.68,134.7,64.48z"/>
<path fill="#8DB0D6" d="M140.38,53.73c0,0-0.1,0-0.2,0c0-0.3,0-0.6,0.1-0.8C140.38,53.13,140.38,53.43,140.38,53.73z"/>
<path fill="#617EB0" d="M143.16,60.3c-0.1-0.1-0.1-0.1-0.2-0.2c0-0.1,0-0.3,0.2-0.4c0.1-0.1,0.1-0.1,0.2,0
C143.36,59.9,143.26,60.1,143.16,60.3z"/>
<path fill="#5A78AD" d="M139.88,83.29c0.1-0.2,0.2-0.3,0.3-0.4l0.1,0.1v0.1c0,0.1-0.1,0.2-0.2,0.2
C139.98,83.4,139.98,83.4,139.88,83.29z"/>
<path fill="#49749B" d="M140.97,39.09c0.1,0,0.1,0,0.2,0c0,0,0,0.1,0,0.2c-0.1,0.1-0.1,0.3-0.2,0.4
C140.77,39.49,140.77,39.29,140.97,39.09z"/>
<path fill="#DFE5EF" d="M127.13,78.12c0,0.2,0,0.4-0.2,0.6C126.93,78.52,126.93,78.32,127.13,78.12z"/>
<path fill="#5876AC" d="M139.28,84.19c-0.1,0-0.2,0-0.2,0c0.1-0.1,0.1-0.2,0.2-0.2c0.1-0.1,0.1-0.1,0.2,0
C139.38,84.09,139.28,84.19,139.28,84.19z"/>
<path fill="#879DC3" d="M138.88,71.35c-0.1-0.1-0.1-0.1-0.2-0.2c0-0.1,0-0.1,0-0.2c0.1,0.1,0.1,0.1,0.2,0.2
C138.88,71.25,138.88,71.25,138.88,71.35z"/>
<path fill="#8CA1C5" d="M138.28,84.99c0,0.1,0,0.2,0,0.3c-0.1,0.1-0.2,0.1-0.2,0C138.08,85.09,138.18,84.99,138.28,84.99z"/>
<path fill="#7790BB" d="M146.65,50.24c0.1,0,0.1,0,0.2,0c0,0.1-0.1,0.2-0.1,0.4c-0.1-0.1-0.1-0.1-0.2-0.2
C146.65,50.34,146.65,50.34,146.65,50.24z"/>
<path fill="#688ABB" d="M146.25,77.42L146.25,77.42C146.25,77.32,146.25,77.32,146.25,77.42"/>
<path fill="#688ABB" d="M146.45,77.12L146.45,77.12"/>
<path fill="#7193C1" d="M138.28,55.92h-0.1c-0.1-0.1-0.1-0.3,0-0.4c0.1,0,0.1,0,0.2,0C138.28,55.72,138.28,55.82,138.28,55.92z"/>
<path fill="#627FB0" d="M144.26,56.91c0.1,0,0.1,0,0.2,0c0,0.1,0,0.2-0.1,0.4c-0.1-0.1-0.1-0.1-0.2-0.2
C144.16,57.01,144.16,56.91,144.26,56.91z"/>
<path fill="#617EB0" d="M143.66,58.41c0.1,0,0.1,0,0.2,0c0,0.1,0,0.2-0.1,0.4c-0.1-0.1-0.1-0.1-0.2-0.2
C143.56,58.51,143.66,58.51,143.66,58.41z"/>
<path fill="#DFE5EF" d="M126.73,77.92c0-0.2,0-0.3,0.2-0.4C126.93,77.72,126.83,77.82,126.73,77.92z"/>
<path fill="#607DAF" d="M143.36,59.8c-0.1,0-0.1,0-0.2,0c0-0.1,0-0.2,0.1-0.4c0.1,0.1,0.1,0.1,0.2,0.2
C143.46,59.6,143.46,59.7,143.36,59.8z"/>
<path fill="#9BC0E3" d="M138.18,56.52c0-0.1,0-0.3,0.1-0.4C138.28,56.32,138.28,56.42,138.18,56.52z"/>
<path fill="#4566A2" d="M141.57,78.62c0,0.1-0.1,0.2-0.2,0.2c-0.1-0.1-0.1-0.2,0-0.3c0.1-0.1,0.1-0.1,0.2-0.2c0,0.1,0,0.1,0,0.1
V78.62L141.57,78.62z"/>
<path fill="#6985B4" d="M141.37,78.52c0,0.1,0,0.2,0,0.3c0,0.1-0.1,0.1-0.1,0C141.17,78.72,141.27,78.62,141.37,78.52z"/>
<path fill="#627FB1" d="M142.46,62.19c-0.1,0-0.1,0-0.2,0c0-0.1,0.1-0.2,0.1-0.4c0.1,0.1,0.1,0.1,0.2,0.2
C142.46,62.09,142.46,62.19,142.46,62.19z"/>
<path fill="#9BC0E3" d="M141.07,38.5c-0.1-0.1-0.1-0.2-0.1-0.4C141.07,38.2,141.17,38.4,141.07,38.5z"/>
<path fill="#A6C9E8" d="M75.86,39.09c0,0.1,0,0.2,0,0.2h-0.1C75.67,39.19,75.77,39.09,75.86,39.09z"/>
<path fill="#9BC0E3" d="M141.47,40.59c-0.1-0.1-0.1-0.2-0.1-0.4C141.47,40.29,141.57,40.49,141.47,40.59z"/>
<path fill="#4E6FA6" d="M140.57,82.8c0,0.1-0.1,0.2-0.2,0.2c-0.1-0.1-0.1-0.1,0-0.2c0.1-0.1,0.1-0.1,0.2-0.2v0.1
C140.67,82.7,140.67,82.7,140.57,82.8z"/>
<path fill="#5675AB" d="M140.38,82.7c0,0.1,0,0.1,0,0.2c0,0.1-0.1,0.2-0.2,0.2c0-0.1,0-0.1,0-0.2
C140.27,82.9,140.38,82.8,140.38,82.7z"/>
<path fill="#93ACCF" d="M120.26,98.03c0.1,0,0.2,0,0.3,0c-0.1,0.1-0.2,0.2-0.3,0.1C120.16,98.23,120.16,98.13,120.26,98.03z"/>
<path fill="#4668A3" d="M148.94,44.77c-0.1-0.1-0.1-0.1-0.2-0.2c0-0.1,0-0.1,0-0.2c0.1,0,0.1,0,0.2,0
C148.94,44.47,148.94,44.67,148.94,44.77z"/>
<path fill="#DCE3EE" d="M123.15,83.89c0,0.2,0,0.3-0.1,0.4C122.95,84.09,122.95,83.99,123.15,83.89z"/>
<path fill="#3E619E" d="M141.57,78.62v-0.1c0.1-0.1,0.1,0,0.2,0C141.67,78.62,141.67,78.62,141.57,78.62z"/>
<path fill="#6588BA" d="M144.26,78.52c0.1,0,0.1,0,0.2,0c-0.1,0.1-0.1,0.1-0.2,0.2C144.16,78.72,144.26,78.62,144.26,78.52z"/>
<path fill="#6B8ABA" d="M144.16,78.91c-0.1,0-0.2,0-0.3,0c0.1-0.1,0.1-0.2,0.3-0.2C144.16,78.82,144.16,78.82,144.16,78.91z"/>
<path fill="#4B6CA5" d="M140.57,82.8c0-0.1,0-0.1,0-0.2c0.1,0,0.2-0.1,0.3-0.1C140.77,82.6,140.67,82.7,140.57,82.8z"/>
<path fill="#96BBDE" d="M147.24,74.54c-0.1,0-0.1,0-0.2,0c0-0.1,0.1-0.2,0.2-0.2C147.24,74.43,147.24,74.54,147.24,74.54z"/>
<path fill="#5474AA" d="M139.88,83.29c0.1,0,0.1,0,0.2,0c0,0.1-0.1,0.2-0.2,0.2l-0.1-0.1C139.78,83.4,139.78,83.29,139.88,83.29z"
/>
<path fill="#DCE3EE" d="M122.75,83.69c0-0.1,0-0.2,0.1-0.2C122.95,83.49,122.85,83.59,122.75,83.69z"/>
<path fill="#5876AC" d="M139.88,83.49c0,0.1-0.1,0.2-0.2,0.2c0,0,0,0-0.1-0.1C139.58,83.49,139.68,83.49,139.88,83.49
C139.78,83.49,139.88,83.49,139.88,83.49z"/>
<path fill="#5876AC" d="M139.38,83.79c0-0.1,0.1-0.2,0.2-0.2c0,0,0,0,0.1,0.1C139.68,83.79,139.58,83.89,139.38,83.79
C139.48,83.89,139.48,83.79,139.38,83.79z"/>
<path fill="#5876AC" d="M139.38,83.99c-0.1,0-0.1,0-0.2,0c0-0.1,0.1-0.2,0.2-0.2c0,0,0,0,0.1,0.1
C139.48,83.89,139.48,83.99,139.38,83.99z"/>
<path fill="#7696C2" d="M144.16,75.43c-0.1,0.1-0.1,0.1-0.2,0.2C144.06,75.63,144.16,75.53,144.16,75.43z"/>
<path fill="#7998C4" d="M135.89,64.78c0-0.1,0.1-0.2,0.1-0.3C135.99,64.58,135.89,64.68,135.89,64.78z"/>
<path fill="#9BC0E3" d="M140.57,86.48c0.1-0.1,0.1-0.1,0.2-0.2C140.67,86.38,140.67,86.48,140.57,86.48z"/>
<path fill="#6688B9" d="M139.28,86.88"/>
<path fill="#839AC1" d="M147.34,41.78c0.1-0.1,1.09-1.59,1.09-1.59c0.1,0-0.6,1.19-0.8,1.29
C147.54,41.68,147.44,41.78,147.34,41.78z"/>
<path fill="#4F7FAF" d="M127.13,90.66c-0.1,0.1-0.1,0.1-0.2,0.2C126.93,90.76,127.03,90.76,127.13,90.66z"/>
<path fill="#C8D2E3" d="M149.13,68.86"/>
<path fill="#9BC0E3" d="M141.37,52.93c0-0.1,0-0.2,0-0.2c0.1,0,0.1,0,0.2,0C141.47,52.83,141.47,52.93,141.37,52.93z"/>
<path fill="#5A99D3" d="M114.39,76.62c-0.7,0.9-1.19,1.89-1.79,2.89c-0.2,0.3-0.3,0.5-0.5,0.8c-0.3-0.1-0.3-0.4-0.3-0.6
c0-1.1-0.2-2.09-0.2-3.19c0-0.1,0-0.2,0-0.3c-0.1-1-0.3-1.2-1.29-1c-0.1,0-0.2,0.1-0.4,0.1c-0.1,0.1-0.2,0.1-0.4,0
c0.5-1.09,0.99-2.29,1.49-3.38c0-1.3,0.5-2.49,0.8-3.78c0.3-1.49,0.7-2.99,0.6-4.58c0-0.3,0-0.6,0.3-0.9c0.1-0.1,0.2-0.1,0.3-0.1
c0.9,0.6,1.99,0.6,2.99,0.8c0.8,0.1,1.59,0.2,2.09,0.9c0.4,1.89-0.1,3.58-0.5,5.38c-0.5,2.19-1.39,4.28-2.39,6.27
C114.89,76.13,114.79,76.53,114.39,76.62z"/>
<path fill="#44749F" d="M109.51,75.33c0.1,0,0.2,0,0.4,0c0,0.1,0,0.1,0,0.2l0,0c-0.4,0.2-0.8,0-1.19,0.1
c-2.19,0.1-4.28,0.4-6.47,0.5c-1.29,0.1-2.59,0.3-3.98,0.3c-0.4,0.2-0.9,0-1.29,0.1c-0.8-0.5-1.19-1.39-1.89-2.09
c-0.2-0.2-0.4-0.5-0.7-0.8c-2.29-2.89-4.58-5.77-6.87-8.66c-0.5-0.5-0.89-1.09-1.29-1.59c-2.49-3.19-5.08-6.37-7.67-9.56
c-0.5-0.6-1.09-1.09-1.3-1.89c0.5-0.6,1.1-0.7,1.79-0.7c0.2,0.1,0.4,0.3,0.6,0.4c0.6,0.4,1.09,0.8,1.49,1.39
c5.67,7.07,11.25,14.14,16.82,21.21c0.6,0.8,1.19,1.49,2.09,1.89c1.19-0.1,2.39-0.2,3.58-0.3c0.9-0.1,1.69-0.1,2.59-0.2
C107.32,75.43,108.42,75.33,109.51,75.33z"/>
<path fill="#5A99D3" d="M100.35,61.49c-0.2-0.2-0.2-0.5-0.2-0.7c-0.1-2.39,0.2-4.88,0.8-7.17c0.1-0.4,0.2-0.9,0.5-1.19
c0.3-0.3,0.6-0.4,0.99-0.4c1.2,0,2.39,0.4,3.49,0.7c0.3,0.1,0.5,0.3,0.6,0.6c-0.2,1.29-0.6,2.59-0.8,3.98c-0.1,0.8,0,1.69-0.3,2.49
c-0.1,0.7,0.1,1.3-0.1,1.99c-0.3,0.4-0.7,0.3-1.09,0.3c-1.09-0.2-2.09-0.4-3.19-0.5C100.85,61.29,100.65,61.29,100.35,61.49z"/>
<path fill="#4472C4" d="M100.15,76.03c-0.8,0.1-1.29-0.2-1.79-0.89c-2.29-2.99-4.68-5.88-7.07-8.86c-2.49-3.19-5.08-6.37-7.56-9.56
c-1.39-1.69-2.79-3.38-4.08-5.08c1.09,0.1,1.79,0.8,2.49,1.59c2.29,2.79,4.48,5.67,6.77,8.56c1.89,2.39,3.78,4.68,5.67,7.07
c1.59,1.99,3.09,3.98,4.68,5.97C99.56,75.23,99.96,75.53,100.15,76.03z"/>
<path fill="#2F5597" d="M112.7,62.59c0.2,3.19-0.6,6.27-1.69,9.26c-0.3-0.3-0.2-0.7-0.2-1.09c0-3.58,0-7.27,0-10.85
c0.7-0.5,1,0.3,1.49,0.6c0.2,0.2,0.3,0.5,0.5,0.7c0.1,0.4,0.2,0.7,0.1,1.09C112.8,62.49,112.8,62.59,112.7,62.59z"/>
<path fill="#4F87BA" d="M108.47,50.54c0.1,0.1,0.1,0.2,0.1,0.3c-0.3,0.7-0.8,1.09-1.59,1.09c-1.19-0.3-2.39-0.4-3.48-0.6
c-0.3,0-0.8,0-0.99-0.4c0.3-0.5,0.8-0.8,1.29-1"/>
<path fill="#5896CE" d="M106.43,53.33c-0.1-0.2-0.3-0.3-0.5-0.4c-1.49-0.2-2.89-0.7-4.38-0.6c0-0.3,0.3-0.5,0.4-0.8
c0.1-0.1,0.1-0.1,0.2-0.2l0,0c0.5-0.3,1.1-0.3,1.59-0.2c0.7,0.2,1.39,0.3,2.09,0.4c0.5,0.1,1,0.1,1.29,0.6
c0.2,0.5-0.1,0.8-0.4,1.19C106.63,53.33,106.53,53.33,106.43,53.33z"/>
<path fill="#406E99" d="M106.03,48.75c0.6-0.3,1.29-0.5,1.89-0.8c1.09,0.1,2.19,0.4,3.19,0.5c0.5,0,0.99,0.1,1.09,0.5
c0.1,0.5-0.5,0.6-0.9,0.8c-0.2,0.1-0.4,0.2-0.6,0.1c-1.39-0.2-2.69-0.3-4.08-0.7C106.43,49.15,106.03,49.25,106.03,48.75z"/>
<path fill="#376289" d="M108.52,47.75c1.2,0.1,2.89,0.5,4.08,0.6c0.5,0.1,0.8,0.3,1.09,0.6c0.2,0.4-0.1,0.6-0.3,0.7
c-1.3,0.5-2.49,1.09-3.78,1.69c-0.1,0.1-0.3,0-0.4,0c-0.1-0.1-0.3-0.1-0.2-0.3l0,0c0.1-0.2,0.1-0.4,0.3-0.5
c0.1-0.1,0.2-0.2,0.3-0.2c0.1,0,0.1-0.1,0.2-0.1c0.2-0.1,0.5-0.2,0.7-0.2c0.1,0,0.2,0,0.2,0c0-0.3,0.1-0.3,0.1-0.3
c0.5-0.1,0.9-0.3,1.39-0.6c-0.3-0.2-0.7-0.3-0.99-0.3c-1,0-1.89-0.4-2.79-0.4c-0.2,0-0.5-0.3-0.6-0.4"/>
<path fill="#4B81B2" d="M109.51,50.44c-0.2,0.2-0.75,0.84-0.95,0.94c-0.5-0.3-0.75-0.84-1.24-0.94c-1-0.2-2.54-0.3-3.54-0.5
c0.2-0.4,0.85-0.6,1.25-0.7c1.59-0.3,3.19,0.3,4.68,0.6c0.2,0,0.3,0.2,0.3,0.4c-0.1,0-0.1,0-0.2,0
C109.61,50.34,109.51,50.44,109.51,50.44z"/>
<path fill="#5490C7" d="M107.02,52.33c-0.5-0.4-1.09-0.4-1.69-0.5c-1.09-0.2-2.09-0.5-3.28-0.5c0.2-0.2,0.5-0.4,0.7-0.6
c1.49,0.2,2.89,0.4,4.38,0.6c0.2,0,0.3,0.2,0.4,0.3C107.62,52.24,107.42,52.43,107.02,52.33z"/>
<path fill="#4678A5" d="M110.3,50.34c-0.3-0.3-1.18-0.4-1.58-0.4c-1.2-0.1-2.39-0.5-3.68-0.7c0.3-0.3,0.6-0.4,1-0.6
c1,0.3,1.99,0.3,2.99,0.6c0.6,0.1,1.79,0.2,2.29,0.5l-0.6,0.3"/>
<path fill="#6DACE5" d="M100.35,61.49c0-0.6,0.3-0.5,0.8-0.5c1.39,0.2,2.79,0.5,4.18,0.7c0.3,0.1,0.4,0.3,0.3,0.6
c-0.4,0.4-0.8,0-1.2,0c-1.29-0.3-2.69,0-3.88-0.7C100.45,61.59,100.45,61.49,100.35,61.49z"/>
<path fill="#335A7D" d="M113.69,48.95c-1.09-0.6-2.39-0.6-3.58-0.8c-0.4-0.1-0.89-0.1-1.29-0.4c0.2-0.1,0.5-0.2,0.8-0.2
c1.09,0,2.19,0.2,3.38,0.3c0.7,0.2,1.39,0.1,1.99,0.5c0.1,0.1,0.1,0.1,0.2,0.2c-0.1,0.4-0.3,0.4-0.6,0.5c-0.2,0-0.4,0-0.7,0
C113.79,49.05,113.79,49.05,113.69,48.95z"/>
<path fill="#346189" d="M77.46,51.94c0.4,0.6,0.9,1.09,1.29,1.69c0.1,0,0.1,0.1,0.1,0.1c0,0.1,0,0.1,0,0.1c-0.1,0.1-0.2,0-0.2,0
c-0.3-0.3-0.5-0.6-0.8-0.99c-0.5-0.7-1.2-1.2-2.09-1.3c0,0-0.1-0.1-0.1-0.2c0-0.1,0-0.1,0-0.1c0.6-0.3,1.39-0.2,1.89-0.7
c0.4-0.1,0.9,0,1.19,0.3c-0.2,0.3-0.6,0.3-0.8,0.5C77.76,51.64,77.26,51.54,77.46,51.94z"/>
<path fill="#2B4B6A" d="M113.1,48.15c-1.2-0.1-2.29-0.2-3.38-0.6c0.4-0.1,0.7-0.2,1.09-0.2c0.2,0,0.4,0,0.6,0
c0.3,0.2,0.6,0,0.9,0.2S113.1,47.56,113.1,48.15z"/>
<path fill="#3D6CA2" d="M103.04,62.19c-0.7,0-1.39-0.3-2.09-0.2c-0.1-0.1-0.3-0.3-0.4-0.4c1.39,0.1,2.69,0.4,3.98,0.6
c0,0,0.1,0.1,0,0.1v0.1C104.04,62.49,103.54,62.39,103.04,62.19z"/>
<path fill="#1C354D" d="M77.56,50.64c0.1,0.1,0.4,0.2,0,0.4c-0.6,0.2-1.19,0.4-1.89,0.4c-0.3,0-0.6,0.3-0.7-0.2
c0.6-0.2,1.19-0.3,1.89-0.5c0.2-0.1,0.4,0,0.6-0.1H77.56z"/>
<path fill="#4371C1" d="M112.1,60.7c-0.4-0.3-0.8-0.7-1.29-0.8c-0.1-0.1-0.1-0.2-0.2-0.4c0-0.4,0.3-0.5,0.7-0.6c0.1,0,0.2,0,0.3,0
c0.2,0.1,0.4,0.4,0.6,0.6c0,0.1,0.1,0.2,0.1,0.2c0.1,0.1,0.1,0.2,0.1,0.4C112.4,60.4,112.3,60.6,112.1,60.7z"/>
<path fill="#386793" d="M74.37,51.84c-0.89,0.3-1.89,0.6-2.79,0.9c-0.2,0.1-0.5,0.2-0.4-0.2c0.89-0.2,1.79-0.6,2.69-0.9
C73.97,51.74,74.27,51.54,74.37,51.84z"/>
<path fill="#3B6C9A" d="M109.11,60.3c-0.8,0.7-1.59,1.4-2.49,1.89c-0.1-0.1-0.1-0.2-0.1-0.3c0.6-1,1.29-1.79,2.59-1.89
C109.11,60.2,109.11,60.3,109.11,60.3z"/>
<path fill="#3A668E" d="M77.46,51.94c-0.3-0.2-0.5-0.4,0-0.6c0.4-0.2,0.9-0.3,1.29-0.4c0.1,0,0.3,0.1,0.4,0.2
C78.65,51.64,77.95,51.54,77.46,51.94z"/>
<path fill="#3A70A1" d="M106.63,62.09c0,0.1,0,0.1,0,0.2c-0.6,0.8-1.39,0.4-2.09,0.2c0-0.1,0-0.1,0-0.2c0.3-0.1,0.6,0.2,0.9,0
c0.1-0.1,0.1-0.1,0.2-0.2C106.03,61.99,106.33,61.79,106.63,62.09z"/>
<path fill="#396896" d="M109.11,60.3c0-0.1,0-0.1,0-0.2c0.3-0.9,1.2-1.39,2.29-1.2c0.1,0.1,0.1,0.2,0,0.3c-0.3,0.1-0.5,0.3-0.8,0.4
C110.11,59.8,109.71,60.3,109.11,60.3z"/>
<path fill="#2C5378" d="M74.37,51.84c-0.2,0-0.4,0-0.6-0.2c0.1,0,0.2,0,0.4,0c0.1-0.1,0.1-0.1,0.2-0.2c0.2-0.1,0.4-0.1,0.6-0.2
c0.2,0.2,0.5,0.1,0.7,0.2c0,0.1,0,0.1,0,0.2c-0.1,0-0.2,0-0.3,0c-0.2,0.2-0.6,0-0.8,0.2C74.47,51.84,74.47,51.84,74.37,51.84z"/>
<path fill="#3A668E" d="M77.46,50.64c-0.2,0.1-0.4,0.2-0.6,0.1C77.06,50.64,77.26,50.64,77.46,50.64z"/>
<path fill="#406E99" d="M108.52,47.85c-0.1,0.1-0.2,0.2-0.4,0.2C108.22,47.85,108.42,47.85,108.52,47.85z"/>
<path fill="#5490C7" d="M102.05,51.44c-0.1,0.1-0.1,0.1-0.2,0.2C101.95,51.54,102.05,51.44,102.05,51.44z"/>
<path fill="#386793" d="M74.37,51.44c-0.1,0.1-0.1,0.1-0.2,0.2C74.27,51.54,74.27,51.44,74.37,51.44z"/>
<path fill="#316391" d="M83.63,77.62c-0.1,0-0.1,0-0.2,0c-0.5-1-1.29-1.79-1.99-2.69c-1.3-1.79-2.69-3.48-4.08-5.18
c-0.6-0.8-1.19-1.49-1.69-2.29c0-0.1-0.1-0.1-0.1-0.2c0-0.1,0-0.1,0.1-0.2c1.79,2.29,3.68,4.68,5.48,6.97
c0.8,1,1.59,2.09,2.29,3.09c0.1,0.1,0.1,0.1,0.2,0.2l0,0C83.83,77.32,83.83,77.42,83.63,77.62z"/>
<path fill="#5180AB" d="M96.77,76.43c0.5,0,1,0,1.49,0c-0.2,0.2-0.5,0.2-0.7,0.2c-2.89,0.2-5.77,0.5-8.66,0.7
c-1.1,0.1-2.09,0.3-3.19,0.2c0-0.1,0-0.1,0-0.2c0-0.1,0.1-0.1,0.2-0.2c2.19-0.1,4.28-0.3,6.47-0.5c1-0.1,1.99-0.2,2.99-0.2
c0.3,0,0.6,0,0.9-0.2C96.57,76.13,96.67,76.33,96.77,76.43z"/>
<path fill="#37658E" d="M78.75,53.83c0-0.1,0-0.1,0-0.2c0.8,0.99,1.59,1.89,2.39,2.89c1.69,2.09,3.28,4.08,4.88,6.17
c0.1,0.2,0.3,0.3,0.3,0.6v0.1c-0.1,0-0.1,0-0.2-0.1c-1.79-2.29-3.68-4.58-5.48-6.87c-0.4-0.5-0.8-0.99-1.19-1.49
c0-0.1-0.1-0.1-0.2-0.2l0,0c-0.1,0-0.1-0.1-0.2-0.2c-0.1-0.1-0.2-0.2-0.2-0.3c0-0.1-0.1-0.2-0.2-0.2l0,0
C78.65,54.03,78.65,54.03,78.75,53.83C78.65,53.93,78.75,53.83,78.75,53.83z"/>
<path fill="#37648E" d="M87.61,64.88c0.5,0.4,0.8,1,1.19,1.49c1.79,2.19,3.48,4.38,5.28,6.57c0.1,0.2,0.3,0.3,0.3,0.6
c-0.1,0.1-0.1,0.1-0.2,0l0,0c0-0.1-0.1-0.1-0.2-0.2c-2.29-2.79-4.48-5.48-6.67-8.36C87.51,64.98,87.61,64.88,87.61,64.88z"/>
<path fill="#38658F" d="M73.27,66.17c0.2,0.2,0.2,0.4,0.2,0.6c-0.1,2.09,0.3,4.18,0.2,6.37c0,0.3,0.1,0.7-0.2,0.99
c-0.3-1.59-0.3-3.19-0.3-4.88c-0.2-0.7,0.1-1.39-0.1-2.09c0-0.2,0-0.4,0-0.6C73.18,66.47,73.08,66.27,73.27,66.17z"/>
<path fill="#33618B" d="M73.27,66.17c0,0.1-0.1,0.3-0.2,0.4c0-0.7-0.1-1.39-0.1-2.09c0-0.2,0-0.4,0.2-0.5c0.3-0.1,0.4,0.1,0.5,0.2
c0.7,0.9,1.39,1.79,2.09,2.69c0,0.1,0,0.1,0,0.2c-0.1,0.1-0.1,0.1-0.2,0l0,0c-0.7-0.9-1.29-1.79-2.19-2.79
C73.18,65.08,73.27,65.67,73.27,66.17z"/>
<path fill="#38658F" d="M94.28,73.64c0.1,0,0.1,0,0.2,0c0.9,0.8,1.69,1.79,2.29,2.89c-0.1-0.1-0.3-0.1-0.4-0.2l0,0
c0-0.1-0.1-0.2-0.2-0.2c-0.4-0.6-0.9-1.09-1.29-1.69c-0.1-0.1-0.1-0.1-0.2-0.2C94.58,74.04,94.38,73.84,94.28,73.64z"/>
<path fill="#36638D" d="M87.61,64.88c-0.1,0.1-0.1,0.1-0.2,0.2c-0.3-0.2-0.4-0.5-0.6-0.7c0-0.1-0.1-0.2-0.2-0.2l0,0
c-0.1-0.1-0.1-0.1-0.2-0.2c-0.1-0.1-0.2-0.2-0.2-0.3c-0.1-0.1,0-0.2,0-0.2l0,0C86.92,63.68,87.21,64.38,87.61,64.88z"/>
<path fill="#4676A3" d="M73.08,67.17c0.3,0.7,0.1,1.4,0.1,2.09C72.98,68.56,73.08,67.86,73.08,67.17z"/>
<path fill="#7BAFDD" d="M85.92,77.22c-0.1,0.1-0.1,0.1-0.2,0.2c-0.3,0-0.6,0-0.9,0C85.12,77.12,85.62,77.22,85.92,77.22z"/>
<path fill="#386793" d="M74.57,51.74c0.2-0.2,0.5-0.2,0.8-0.2C75.17,51.74,74.87,51.84,74.57,51.74z"/>
<path fill="#45739C" d="M83.63,77.62c0-0.1,0-0.2,0-0.4c0.1,0.1,0.1,0.1,0.2,0.2C83.83,77.42,83.73,77.52,83.63,77.62z"/>
<path fill="#44749F" d="M86.32,63.39c0,0.1,0,0.2,0,0.2c-0.1-0.1-0.1-0.1-0.2-0.2C86.22,63.39,86.22,63.39,86.32,63.39z"/>
<path fill="#44749F" d="M94.08,73.44c0.1,0.1,0.1,0.1,0.2,0.2C94.18,73.54,94.18,73.44,94.08,73.44z"/>
<path fill="#44749F" d="M94.68,74.14c0.1,0.1,0.1,0.1,0.2,0.2C94.78,74.33,94.78,74.24,94.68,74.14z"/>
<path fill="#44749F" d="M86.52,63.88c0.1,0.1,0.1,0.1,0.2,0.2C86.62,64.08,86.62,63.98,86.52,63.88z"/>
<path fill="#44749F" d="M86.71,64.08c0.1,0.1,0.1,0.1,0.2,0.2C86.81,64.28,86.71,64.18,86.71,64.08z"/>
<path fill="#5180AB" d="M96.17,76.03c0.1,0.1,0.1,0.1,0.2,0.2C96.27,76.23,96.27,76.13,96.17,76.03z"/>
<path fill="#44749F" d="M79.35,54.82c0.1,0.1,0.1,0.1,0.2,0.2C79.45,54.92,79.35,54.92,79.35,54.82z"/>
<path fill="#44749F" d="M79.15,54.62c0.1,0.1,0.1,0.1,0.2,0.2C79.25,54.72,79.25,54.72,79.15,54.62z"/>
<path fill="#44749F" d="M78.75,54.03c0.1,0.1,0.1,0.2,0.2,0.2C78.85,54.23,78.75,54.13,78.75,54.03z"/>
<path fill="#44749F" d="M78.75,53.83c0,0.1,0,0.1,0,0.2c-0.1-0.1-0.1-0.1-0.2-0.2C78.65,53.83,78.65,53.83,78.75,53.83z"/>
<path fill="#45739C" d="M83.63,77.22c-0.1-0.1-0.1-0.1-0.2-0.2C83.53,77.12,83.63,77.12,83.63,77.22z"/>
<path fill="#1B3145" d="M119.17,48.55c1.19-0.8,2.09-1.79,3.08-2.69c2.19-1.89,4.38-3.98,6.47-5.97c0.4-0.4,0.9-0.7,1.39-1
c0.3,0.4,0.3,0.5-0.1,0.8c-1,1-1.99,1.89-2.99,2.79c-0.6,0.6-1.2,1.19-1.89,1.69c-0.1,0.1-0.1,0.1-0.2,0.1c0,0-0.1,0-0.1,0.1
c-0.1,0.1-0.1,0.1-0.2,0.1l-0.1,0.1c-0.1,0.1-0.1,0.1-0.2,0.2l-0.1,0.1c-0.1,0.1-0.1,0.1-0.2,0.2l-0.1,0.1
c-0.1,0.1-0.1,0.1-0.2,0.2c-0.4,0.3-0.7,0.7-1.09,0.99c-0.1,0-0.1,0.1-0.2,0.1c0,0-0.1,0-0.1,0.1c-0.1,0.1-0.1,0.1-0.2,0.2
l-0.1,0.1c-0.1,0.1-0.1,0.1-0.2,0.2l-0.1,0.1c-0.1,0.1-0.1,0.1-0.2,0.2l-0.1,0.1c-0.4,0.3-0.7,0.7-1.09,1.09
c-0.1,0.1-0.1,0.1-0.2,0.2c-0.1,0-0.1,0.1-0.2,0.1c0,0-0.1,0-0.1,0.1c-0.1,0-0.1,0.1-0.2,0.1c-0.1,0-0.1,0.1-0.2,0.1
c-0.1,0.1-0.3,0.2-0.4,0.2s-0.2,0-0.2,0c-0.1,0-0.2-0.1-0.3-0.2c0-0.1,0-0.2,0-0.3C118.97,48.75,119.07,48.65,119.17,48.55z"/>
<path fill="#2A4D71" d="M124.84,44.17c0.8-0.6,1.39-1.3,2.09-1.89c1-0.8,1.99-1.79,2.89-2.69c0.2-0.2,0.5-0.3,0.3-0.6
c0.4-0.4,0.8-0.6,1.29-0.7c0.1,0.1,0.1,0.1,0.1,0.2c0,0.4-0.3,0.7-0.6,0.9c-2.69,2.39-5.28,4.88-7.96,7.27
c-0.4,0.3-0.7,0.8-1.29,0.5c-0.1-0.1-0.1-0.2,0-0.2l0,0c0.1-0.1,0.1-0.1,0.2-0.2l0,0c0.1-0.1,0.1-0.1,0.2-0.2l0,0
c0.1-0.1,0.1-0.1,0.2-0.2l0,0c0.1-0.1,0.1-0.1,0.2-0.2c0.4-0.4,0.9-0.8,1.29-1.19c0.1-0.1,0.1-0.1,0.2-0.2l0,0
c0.1-0.1,0.1-0.1,0.2-0.2l0,0c0.1-0.1,0.1-0.1,0.2-0.2l0,0c0.1-0.1,0.1-0.1,0.2-0.2l0,0C124.74,44.37,124.74,44.27,124.84,44.17z"
/>
<path fill="#1B2F46" d="M112.1,47.75c-0.2-0.2-0.59-0.1-0.8-0.4c1.49-0.1,3.09,0.2,4.58,0.5c0.3,0,0.6,0.1,0.9,0.1
c0,0.5-0.5,0.4-0.8,0.4c-0.9,0-1.79-0.2-2.69-0.4C113,47.95,112.5,47.95,112.1,47.75z"/>
<path fill="#2A4968" d="M112.1,47.75c0.8,0,1.59,0.2,2.29,0.3c0.8,0.1,1.59,0.3,2.39-0.1c0.3-0.1,0.6,0.1,1,0.2
c0,0.4-0.3,0.4-0.6,0.4c-0.7,0-1.39,0.1-2.09-0.1c-0.7-0.2-1.39-0.1-2.09-0.4C112.8,47.85,112.4,48.05,112.1,47.75z"/>
<path fill="#335A7D" d="M115.19,48.55c0.5-0.3,0.99-0.1,1.49-0.2c0.4,0,0.8,0.1,1.19-0.2c0.5,0.1,1,0,1.39,0.4
c0,0.1-0.1,0.3-0.2,0.3s-0.2,0-0.3,0c-0.2,0-0.4,0.1-0.7,0.1c-0.6,0-1.3,0-1.89,0C115.79,48.95,115.39,48.95,115.19,48.55
L115.19,48.55z"/>
<path fill="#315C88" d="M131.51,38.5c0-0.1,0-0.2,0-0.2c0.4-0.4,0.89-0.5,1.49-0.6c0.2,0,0.5,0,0.7-0.2c0.1,0.1,0.2,0.2,0.3,0.3
C133.21,38.6,132.41,38.89,131.51,38.5z"/>
<path fill="#4C7FAE" d="M101.95,85.58c0.2,0.1,0.4,0.2,0.6,0.4c-1.59-0.1-3.19,0.2-4.78,0.3c-0.8,0.1-1.59,0.1-2.49,0.2
c-1.09,0.2-2.09,0.2-3.19,0.2c-0.5,0-0.99,0.1-1.49,0.2c-0.4-0.2-0.8,0.1-1.19-0.2c0.2-0.1,0.5-0.1,0.7-0.2
c2.89-0.2,5.77-0.5,8.66-0.7C99.76,85.69,100.85,85.69,101.95,85.58z"/>
<path fill="#4B7DAA" d="M89.3,86.68c0.4,0.1,0.8-0.1,1.2,0.2c-2.09,0.1-4.08,0.3-6.17,0.5c-0.8,0.1-1.49,0-2.29,0
c0.3-0.3,0.8-0.3,1.09-0.3C85.22,86.98,87.31,86.68,89.3,86.68z"/>
<path fill="#5A99D3" d="M108.72,75.63c0.4-0.2,0.8-0.2,1.19-0.1C109.51,75.73,109.11,75.73,108.72,75.63z"/>
<path fill="#98BDDF" d="M126.34,56.22c0,0.1,0.1,0.1,0.1,0.2c0,0.1,0.1,0.1,0.1,0.2c0.3,1.69,0.5,3.29,0.4,4.98
c-0.1,2.99-0.6,5.87-1.4,8.66c-1.09,4.08-3.08,7.77-5.27,11.25c-1.99,3.19-4.28,6.27-6.57,9.26c-0.2,0.3-0.4,0.6-0.6,0.9
c-0.3-0.2-0.3-0.6-0.3-0.9c-0.3-2.89-0.5-5.77-0.8-8.66c-0.1-0.6,0-1.09,0.4-1.59c0.8-1.09,1.49-2.29,2.09-3.48
c0.7-1.69,1.59-3.19,2.19-4.88c0.8-2.19,1.29-4.48,1.4-6.87c0-0.9-0.3-1.69-0.4-2.59c-0.1-0.99-0.7-1.89-1.29-2.69
c-0.1,0-0.1-0.1-0.2-0.1c-0.1,0-0.1-0.1-0.2-0.1c-0.1,0-0.1-0.1-0.2-0.1c-0.1-0.1-0.2-0.1-0.3-0.2c-0.2-0.2-0.4-0.1-0.7-0.2
c-0.3-0.1-0.6-0.1-0.9-0.1c-0.2,0-0.4,0-0.6,0c-0.7-0.2-1.29,0.3-1.99,0.1c-0.8,0.2-1.59,0.7-2.29,1.19
c-0.9,0.5-1.69,1.19-2.49,1.89c-0.3,0.1-0.6,0.4-0.9,0.1c-0.4-0.6-0.3-1.19-0.3-1.89c0.2-1.59,0.3-3.18,0.6-4.78
c0.1-0.7,0.2-1.49,0.7-2.19c0.5-1.09,1.29-2.09,2.39-2.59c1.49-0.9,3.08-1.3,4.68-1.89c0.1,0,0.1,0,0.1,0c0.2-0.2,0.4,0,0.6-0.2
c0.3,0,0.5,0,0.8-0.2c1.09,0,2.09,0,3.19,0c0.2,0.1,0.5,0,0.59,0.2v0.1L126.34,56.22"/>
<path fill="#4573C5" d="M126.34,56.22c-1,0.8-1.89,1.49-2.89,2.29c-0.4,0.3-0.8,0.6-1.29,0.7c-0.7,0.3-1.2,0.1-1.59-0.5
c-0.2-0.2-0.3-0.5-0.4-0.7c0-0.2,0.1-0.3,0.3-0.4c0.8-0.4,1.59-0.8,2.29-1.3c1.79-0.99,3.38-2.49,4.98-3.68
c0.6-0.4,1-1.19,1.89-0.99c0.1,0.7,0.3,1.39,0.4,2.09c-0.8,0.3-1.39,1-2.09,1.49C127.33,55.32,126.83,55.72,126.34,56.22z"/>
<path fill="#4371C2" d="M114.79,94.44c0,0.1,0,0.3,0,0.4c0.2,0.3,0,0.4-0.2,0.5c-0.6-0.5-1-1.09-1.39-1.69
c-0.4-0.5-0.3-1.09-0.3-1.69C113.59,92.75,114.19,93.55,114.79,94.44z"/>
<path fill="#B5C2DA" d="M118.57,88.97c0-0.1-0.1-0.3-0.2-0.4c0.1-0.3,0.3-0.6,0.4-0.9c0.1-0.1,0.2-0.1,0.2,0
C118.97,88.07,118.87,88.57,118.57,88.97z"/>
<path fill="#8FA3C6" d="M132.11,68.86c-0.1-0.2,0-0.5-0.2-0.6c0-0.2,0.1-0.4,0.2-0.4c0.2,0,0.2,0.2,0.2,0.3
C132.21,68.46,132.11,68.66,132.11,68.86z"/>
<path fill="#B6C4DB" d="M127.33,77.22c-0.1-0.1-0.1-0.3-0.2-0.4c0.1-0.2,0.1-0.4,0.2-0.6c0.4,0,0.2,0.2,0.2,0.4
C127.53,76.92,127.53,77.12,127.33,77.22z"/>
<path fill="#7A92BC" d="M127.53,76.62c0-0.1-0.1-0.3-0.2-0.4c0-0.1,0.1-0.3,0.2-0.3c0.2,0,0.1,0.2,0.1,0.3
C127.63,76.43,127.63,76.53,127.53,76.62z"/>
<path fill="#C6D0E2" d="M123.35,83.19c-0.1-0.1-0.1-0.2-0.2-0.2c0.1-0.1,0.1-0.3,0.2-0.4c0.1-0.1,0.1-0.1,0.2,0
C123.55,82.7,123.55,83,123.35,83.19z"/>
<path fill="#93A6C8" d="M119.07,87.68c-0.1,0-0.2,0-0.2,0c0-0.1,0-0.1,0.1-0.2c0.1-0.1,0.1-0.3,0.2-0.2
C119.27,87.38,119.17,87.58,119.07,87.68z"/>
<path fill="#8399C0" d="M123.55,82.5c-0.1,0-0.1,0-0.2,0c0-0.2,0.1-0.3,0.3-0.2C123.65,82.3,123.65,82.5,123.55,82.5z"/>
<path fill="#4573C5" d="M126.54,56.52c0-0.1-0.1-0.1-0.1-0.2C126.44,56.42,126.44,56.52,126.54,56.52z"/>
<path fill="#F7F9FB" d="M145.95,42.98c0.1-0.8,0.2-2.69,0.3-3.58c0-0.1,0.1-0.2,0.2-0.2c0.4,0.1,0.8,0.2,1,0.6
c-0.5,0.8-1,2.29-1.3,3.19H145.95z"/>
<path fill="#376593" d="M129.62,51.44c-1.79,1.19-3.49,2.69-5.18,3.98c-0.5,0.4-0.99,0.8-1.59,0.89c-0.1,0.1-0.3,0.1-0.4,0
c-0.1-0.4,0.2-0.6,0.4-0.8c2.59-1.79,4.98-3.78,7.47-5.67c1.59-1.19,2.09-1,2.39,1c0.5,2.39,0.9,4.78,1.3,7.17c0,0.2,0,0.5,0,0.7
c0,0.1,0,0.2-0.1,0.3c-0.1,0.1-0.2,0.2-0.3,0.2c-0.4-1.19-0.5-2.39-0.7-3.58c-0.4-1.89-0.7-3.88-1.09-5.87
C130.92,50.14,130.22,50.84,129.62,51.44z"/>
<path fill="#3B6995" d="M134.7,64.48c0,0.2,0,0.5,0,0.7c-0.3-0.4-0.3-0.89-0.4-1.39c-0.1-0.6-0.2-1.29-0.4-1.89
c0.1-0.1,0.1-0.3,0.3-0.2c0.3,0.1,0.4,0.4,0.4,0.7c0,0.2,0.1,0.4,0.1,0.7c0,0.2,0,0.4,0,0.6c0,0.2-0.1,0.3,0,0.5c0,0.1,0,0.2,0,0.2
S134.7,64.38,134.7,64.48z"/>
<path fill="#366490" d="M134.2,61.59c-0.1,0.1-0.1,0.2-0.2,0.2c-0.1-0.9-0.4-1.69-0.4-2.59c0.1-0.1,0.1-0.1,0.2-0.2
c0.5,0.2,0.5,0.7,0.6,1.19c0,0.2,0.1,0.5,0.1,0.7C134.4,61.19,134.4,61.39,134.2,61.59z"/>
<path fill="#4676A3" d="M75.47,67.17c0.1,0,0.1,0,0.2,0c0,0.1,0,0.1,0,0.2C75.67,67.27,75.56,67.27,75.47,67.17z"/>
<path fill="#4879A6" d="M117.87,62.19c0.3,0.9,0.4,1.89,0.3,2.89c-0.3,4.18-1.59,7.96-3.68,11.65c0,0.1-0.1,0.1-0.1,0.1
c0-0.1,0-0.2,0-0.2c0.2-0.9,0.7-1.69,1.1-2.49c1.09-2.39,1.79-4.98,2.29-7.57c0.1-0.7,0-1.49,0.1-2.29c-0.5-0.5-0.3-1.19-0.4-1.79
c0-0.1,0.1-0.2,0.1-0.3C117.68,62.19,117.78,62.19,117.87,62.19z"/>
<path fill="#708CBA" d="M114.59,96.24c-0.1,0-0.2-0.1-0.2-0.2c0.1-0.2,0.1-0.4,0.2-0.6c0.1-0.2,0.1-0.4,0.2-0.5"/>
<path fill="#6A8BBB" d="M144.16,84.19c0-0.1,0-0.1,0.1-0.2c0.1,0,0.1,0,0.1,0C144.36,84.09,144.26,84.19,144.16,84.19z"/>
<path fill="#9BC0E3" d="M134.7,64.28c0-0.1,0-0.1-0.1-0.2c-0.1-0.1-0.1-0.3-0.1-0.4c0-0.2,0-0.5-0.1-0.7c-0.1-0.2,0-0.4-0.1-0.6
c0-0.3,0-0.6-0.2-0.8c0-0.2,0-0.5-0.1-0.7c-0.1-0.2,0-0.4-0.1-0.6c-0.1-0.4-0.2-0.89-0.2-1.29c0-0.1,0-0.1,0-0.2
c-0.1-0.2,0-0.4-0.1-0.6c-0.5-2.69-0.99-5.38-1.49-8.06c-0.2-0.9-0.3-0.9-1-0.4c-2.29,1.79-4.48,3.48-6.77,5.28
c-0.7,0.5-1.39,0.9-2.09,1.29c-0.1,0.1-0.1,0.2-0.2,0.2c-0.8,0.1-1.1-0.5-1.29-1.09c-0.6-1.4-0.7-2.89-1-4.38
c0-0.5-0.1-0.9-0.1-1.39c0-0.1,0.1-0.2,0.1-0.3c0-0.2,0.2-0.3,0.3-0.5c0.1-0.2,0.3-0.4,0.5-0.6c0.4-0.3,0.7-0.8,1.19-1
c0.8-0.5,1.49-1.29,2.19-1.89c2.49-2.29,4.98-4.58,7.47-6.87c0.8-0.3,1.59-0.5,2.49-0.6c0.9,0,1.69-0.1,2.49-0.3
c0.7-0.1,1.39,0,2.09-0.2c0.2,0,0.5,0,0.7,0c0.5,0.2,1.29,0.1,1.49,0.8c0,0.3,0,0.6,0.2,0.9c0,0.2,0,0.4,0.1,0.6
c0.1,0.6,0.1,1.19,0.4,1.69c0.3,1.89,0.7,3.78,1,5.67c-0.1,1.99-0.7,3.88-1.19,5.67c-0.1,0.6-0.3,1.29-0.4,1.89
c-0.5-0.2-0.2-0.6-0.2-0.9c0-1.49,0.3-2.99,0.2-4.48c0-0.3,0.2-0.8-0.2-0.8c-0.4-0.1-0.5,0.4-0.6,0.7
c-0.7,2.19-1.29,4.28-1.89,6.47c0,0.1,0,0.3,0,0.4c-0.6,1.3-0.8,2.79-1.2,4.18c-0.1-0.1-0.3-0.2-0.4-0.3c-0.1,0.1-0.1,0.2-0.1,0.3
c0,0.2-0.3,0.4-0.3,0.6"/>
<path fill="#4876B2" d="M148.64,75.13"/>
<path fill="#A9B8D3" d="M148.14,75.73C148.14,75.73,148.24,75.63,148.14,75.73C148.24,75.63,148.14,75.63,148.14,75.73
L148.14,75.73z"/>
<path fill="#CCD4E5" d="M147.84,75.93c0-0.1,0.2-0.2,0.3-0.2l0,0c-0.1,0.1-0.3,0.6-0.4,0.6L147.84,75.93z"/>
<path fill="#8DB0D6" d="M140.57,53.63c0,0.3-0.1,0.7,0.2,0.9c0,0.1,0,0.1,0,0.2c-0.1,0.1-0.2,0.2-0.4,0.4c0-0.6,0-1.1,0-1.59
C140.47,53.73,140.57,53.73,140.57,53.63z"/>
<path fill="#688ABB" d="M128.63,88.77l0.1,0.1L128.63,88.77z"/>
<path fill="#6A8BBB" d="M127.73,89.97L127.73,89.97L127.73,89.97z"/>
<path fill="#6A8BBC" d="M128.63,90.26L128.63,90.26L128.63,90.26z"/>
<path fill="#688BBA" d="M146.95,76.62"/>
<path fill="#96BBDE" d="M144.16,79.11L144.16,79.11L144.16,79.11z"/>
<path fill="#9BC0E3" d="M139.28,87.08c0-0.1,0-0.1,0-0.2c0.1,0,0.1,0,0.2,0C139.38,86.98,139.28,86.98,139.28,87.08z"/>
<path fill="#6B8BBB" d="M139.28,87.48l-0.1-0.1L139.28,87.48z"/>
<path fill="#609FD9" d="M117.68,62.39c0.3,0.6,0.1,1.3,0.2,1.89c-0.8-0.4-1.59-0.6-2.49-0.6c-0.7,0-1.39-0.4-2.09-0.4
c-0.4,0-0.3-0.4-0.3-0.7l0.1-0.1c0.9-0.6,1.89,0,2.79,0.1C116.38,62.59,116.98,62.79,117.68,62.39z"/>
<path fill="#609FD9" d="M112.7,62.59c0-0.1,0-0.1,0-0.2c0.2,0,0.2,0,0.2,0.2l0,0C112.8,62.59,112.8,62.59,112.7,62.59z"/>
<path fill="#4C7CA8" d="M106.83,53.33c-0.8,1.79-0.9,3.78-1.09,5.67c0,0.5,0.1,0.9-0.2,1.39c-0.2-0.2,0-0.5-0.2-0.8
c0.2-1.49,0.3-2.89,0.6-4.38c0.1-0.7,0.4-1.29,0.6-1.89c0.1,0,0.1,0,0.2,0C106.63,53.13,106.72,53.13,106.83,53.33z"/>
<path fill="#4072A1" d="M105.33,59.6c0.2,0.2,0.1,0.5,0.2,0.8c0,0.6,0,1.29,0.2,1.89c-0.1,0-0.1,0-0.2,0c-0.1-0.2-0.1-0.4-0.2-0.6
C105.33,61,105.33,60.3,105.33,59.6z"/>
<path fill="#73B2EA" d="M112.9,62.59c-0.1-0.1-0.1-0.1-0.2-0.2c-0.1-0.4-0.2-0.7-0.2-1.09c-0.2-0.5,0-0.8,0.5-0.8
c1.49,0.2,3.09,0.1,4.48,0.9c0.2,0.2,0.3,0.4,0.2,0.7c0,0.1,0,0.1,0,0.2c-0.1,0.8-0.2,0.9-1,0.7
C115.39,62.89,114.19,62.59,112.9,62.59z"/>
<path fill="#5693CA" d="M117.48,61.69c-0.9-0.4-1.89-0.4-2.79-0.6c-0.6-0.1-1.09-0.1-1.69-0.2c-0.4-0.1-0.4,0.2-0.4,0.4
c-0.1-0.2-0.2-0.4-0.4-0.6c0-0.2,0-0.4,0-0.6c-0.1-0.1-0.1-0.1-0.2-0.2c0-0.1,0-0.1,0-0.2c0.2-0.3,0.6-0.2,0.9-0.2
c1.29,0.3,2.69,0.3,3.98,0.7C117.18,60.7,117.58,61.1,117.48,61.69z"/>
<path fill="#406E99" d="M106.83,53.33c-0.1,0-0.1,0-0.2,0c0.1-0.3,0.3-0.6,0.4-0.9c0.2-0.2,0.4-0.3,0.6-0.6
c0.4-0.3,0.9-0.6,1.29-0.99c0.1,0.1,0.1,0.1,0.2,0.2C108.32,51.74,107.32,52.33,106.83,53.33z"/>
<path fill="#406E99" d="M110.61,49.85c0.1-0.1,0.1-0.1,0.2-0.2C110.71,49.75,110.71,49.85,110.61,49.85z"/>
<path fill="#4678A5" d="M109.51,50.44c0.1-0.1,0.1-0.1,0.2-0.2C109.61,50.34,109.51,50.44,109.51,50.44z"/>
<path fill="#376289" d="M114.39,48.75c-0.2,0.1-0.4,0.2-0.6,0.2C113.99,48.75,114.19,48.75,114.39,48.75z"/>
<path fill="#4E86B9" d="M116.88,60.5c-1.69-0.2-3.29-0.4-4.98-0.8c-0.2-0.1-0.4-0.3-0.4-0.6c0.5-0.5,0.99-0.3,1.59-0.3
c0.9,0.3,1.79,0.3,2.69,0.5C116.48,59.6,116.78,59.9,116.88,60.5z"/>
<path fill="#366187" d="M113.1,59.2c-0.5,0-1-0.2-1.49,0c-0.1,0-0.1,0-0.2,0c0-0.1,0-0.1,0-0.2c0.7-0.3,1.39-0.5,2.09-0.4
c0.1,0.2,0.4,0.1,0.6,0.2c0.2,0.1,0.4,0.3,0,0.4C113.69,59.2,113.4,59.4,113.1,59.2z"/>
<path fill="#4E86B9" d="M111.9,59.9c0.1,0.1,0.1,0.1,0.2,0.2C112.1,60.1,112,60,111.9,59.9z"/>
<path fill="#3A5E7E" d="M120.07,49.35c0,0.1,0,0.1,0,0.2c-0.5,0.4-1,0.7-1.59,1c-0.2,0.1-0.6,0.3-0.7-0.2c0.1-0.3,0.3-0.6,0.6-0.8
c0.4,0,0.59-0.3,0.99-0.4l0,0c0.2-0.1,0.4-0.2,0.6-0.4l0,0c0.1-0.1,0.1-0.1,0.2-0.2l0,0c0-0.1,0.1-0.1,0.2-0.2c0.1,0,0.1,0,0.2-0.1
c0.1-0.1,0.2,0,0.2,0c-0.1,0.2-0.2,0.4-0.4,0.6C120.16,49.05,120.16,49.25,120.07,49.35z"/>
<path fill="#2A4760" d="M120.66,48.35c-0.1,0-0.1,0-0.2,0c0.4-0.5,0.8-0.9,1.29-1.29c0,0.1,0,0.2,0,0.2
C121.46,47.66,121.06,48.05,120.66,48.35z"/>
<path fill="#2A4760" d="M119.37,49.15c-0.3,0.2-0.5,0.7-0.99,0.4l0,0c0.1,0,0.1-0.1,0.2-0.2c0.1-0.2,0.2-0.3,0.4-0.4
C119.07,49.05,119.17,49.15,119.37,49.15z"/>
<path fill="#2A4760" d="M119.87,48.75c-0.1,0.2-0.3,0.4-0.6,0.4C119.47,48.85,119.67,48.75,119.87,48.75z"/>
<path fill="#2A4760" d="M120.07,48.55c-0.1,0.1-0.1,0.1-0.2,0.2C119.97,48.65,120.07,48.65,120.07,48.55z"/>
<path fill="#2A4760" d="M120.26,48.35c-0.1,0.1-0.1,0.1-0.2,0.2C120.16,48.55,120.26,48.45,120.26,48.35z"/>
<path fill="#2A4760" d="M121.96,46.86c-0.1,0.1-0.1,0.1-0.2,0.2C121.86,46.96,121.96,46.96,121.96,46.86z"/>
<path fill="#2A4760" d="M122.16,46.66c-0.1,0.1-0.1,0.1-0.2,0.2C122.06,46.76,122.16,46.76,122.16,46.66z"/>
<path fill="#2A4760" d="M122.36,46.46c-0.1,0.1-0.1,0.1-0.2,0.2C122.25,46.56,122.36,46.56,122.36,46.46z"/>
<path fill="#2A4760" d="M122.55,46.26c-0.1,0.1-0.1,0.1-0.2,0.2C122.45,46.46,122.45,46.36,122.55,46.26z"/>
<path fill="#2A4760" d="M124.05,44.97c-0.1,0.1-0.1,0.1-0.2,0.2C123.95,45.07,124.05,44.97,124.05,44.97z"/>
<path fill="#2A4760" d="M124.25,44.77c-0.1,0.1-0.1,0.1-0.2,0.2C124.15,44.87,124.25,44.87,124.25,44.77z"/>
<path fill="#2A4760" d="M124.44,44.57c-0.1,0.1-0.1,0.1-0.2,0.2C124.35,44.67,124.44,44.67,124.44,44.57z"/>
<path fill="#2A4760" d="M124.65,44.37c-0.1,0.1-0.1,0.1-0.2,0.2C124.54,44.47,124.54,44.47,124.65,44.37z"/>
<path fill="#2A4760" d="M124.84,44.17c-0.1,0.1-0.1,0.1-0.2,0.2C124.74,44.37,124.74,44.27,124.84,44.17z"/>
<path fill="#2F5597" d="M118.97,48.75c-0.2-0.1-0.4-0.1-0.59-0.2C118.57,48.55,118.77,48.55,118.97,48.75z"/>
<path fill="#4C81B2" d="M118.37,56.12c-0.5-1.49-0.7-2.99-0.9-4.48c0-0.3,0-0.6,0.1-0.8c0.4,0.1,0.7-0.2,1-0.4
c0.9-0.5,1.19-0.3,1.29,0.7c0,0.2,0.1,0.3,0.1,0.5c0.2,1.29,0.5,2.59,0.8,3.78c-0.2,0.6-0.7,0.99-1.29,1.29
C118.97,56.91,118.57,56.81,118.37,56.12z"/>
<path fill="#4576A1" d="M119.87,51.44c-0.3-0.3-0.1-0.7-0.3-0.99c-0.5,0.1-0.99,0.3-1.39,0.7c-0.4,0.3-0.6,0.1-0.6-0.3
c0-0.2,0-0.4,0.2-0.5c0.4,0.2,0.6-0.2,0.9-0.3c0.5-0.1,0.8-0.8,1.39-0.5c0,0.5,0,1,0,1.49C119.97,51.14,120.07,51.34,119.87,51.44z
"/>
<path fill="#5087B9" d="M118.37,56.12c0.3,0.4,0.7,0.4,1.09,0.1c0.4-0.3,0.8-0.6,1.19-0.9h0.1c0.1,0.1,0.1,0.2,0.2,0.2
c0,0.1,0.1,0.1,0.1,0.2c0,0.1,0.1,0.1,0.1,0.2c0.1,0.2,0.1,0.3,0,0.4c-0.5,0.3-1,0.6-1.49,0.9c-0.3,0.1-0.5,0.3-0.8,0.1l0,0
c-0.1-0.1-0.1-0.3-0.2-0.4C118.47,56.81,118.37,56.52,118.37,56.12z"/>
<path fill="#416F99" d="M113.1,59.2c0.4,0,0.8,0,1.09,0c0.8-0.5,1.39,0.1,2.09,0.2c0.99,0.7,1.39,1.69,1.59,2.79
c-0.1,0-0.1,0-0.2,0c-0.1-0.2-0.1-0.4-0.2-0.6c-0.1-0.4-0.3-0.8-0.6-1.09c-0.4-0.9-1.29-0.8-2.09-0.9
C114.19,59.5,113.59,59.4,113.1,59.2z"/>
<path fill="#598EBD" d="M118.97,57.51c0.7-0.4,1.4-0.99,2.29-1.09c0.3,0.4,0.3,0.4,0,0.6c-0.3,0.3-0.7,0.4-0.99,0.6
c-0.2,0.1-0.4,0.2-0.6,0.3C119.37,57.91,119.17,57.81,118.97,57.51z"/>
<path fill="#2C4F6E" d="M116.28,59.4c-0.7,0.2-1.39-0.3-2.09-0.2c-0.2-0.2-0.4-0.2-0.7-0.2c-0.5,0-0.2-0.2-0.1-0.4
c0.2,0,0.4,0,0.6,0c0.3,0.2,0.7,0,1,0.2c0.3,0,0.5,0.1,0.7,0.2c0.1,0,0.1,0.1,0.2,0.1c0.1,0,0.1,0,0.1,0.1
C116.18,59.3,116.28,59.3,116.28,59.4L116.28,59.4z"/>
<path fill="#325478" d="M119.67,57.91c0.1-0.2,0.2-0.3,0.4-0.4c0.1-0.1,0.3-0.1,0.4,0c0.1,0.1,0.1,0.2,0,0.3
c-0.1,0.1-0.3,0.1-0.4,0.2C119.97,57.91,119.87,57.91,119.67,57.91z"/>
<path fill="#366187" d="M114.99,58.81c-0.3,0-0.7,0.1-1-0.2C114.39,58.61,114.69,58.51,114.99,58.81z"/>
<path fill="#598EBD" d="M118.77,57.11c0.1,0.1,0.2,0.2,0.2,0.4C118.87,57.41,118.77,57.21,118.77,57.11z"/>
<path fill="#3A5E7E" d="M118.57,49.25c-0.1,0.1-0.1,0.1-0.2,0.2C118.47,49.45,118.47,49.35,118.57,49.25z"/>
<path fill="#416F99" d="M116.28,59.4c-0.1,0-0.1-0.1-0.2-0.1C116.18,59.3,116.18,59.3,116.28,59.4z"/>
<path fill="#416F99" d="M115.98,59.2c-0.1,0-0.2-0.1-0.2-0.1C115.79,59,115.88,59.1,115.98,59.2z"/>
<path fill="#25405F" d="M120.46,57.71c0-0.1,0-0.2,0-0.2c0.4-0.6,1.09-0.8,1.69-1.09c0.1,0,0.1,0,0.2,0c0.1,0,0.3,0,0.4,0
C122.06,56.91,121.36,57.41,120.46,57.71z"/>
<path fill="#4C81B1" d="M133.6,58.21c0.1,0.2,0.2,0.4,0.1,0.6C133.6,58.61,133.6,58.41,133.6,58.21z"/>
<path fill="#4C81B1" d="M134.3,62.39c0.1,0.2,0.2,0.4,0.1,0.6C134.3,62.79,134.3,62.59,134.3,62.39z"/>
<path fill="#416C98" d="M134.5,63.68c0.1,0.1,0.1,0.3,0.1,0.4C134.6,63.98,134.5,63.78,134.5,63.68z"/>
<path fill="#4C81B1" d="M134,60.3c0.1,0.2,0.2,0.4,0.1,0.6C134,60.7,133.9,60.5,134,60.3z"/>
<path fill="#3D6B96" d="M122.16,56.32c-0.5,0.5-1.2,0.7-1.69,1.1c-0.1,0-0.2,0-0.4,0c0.3-0.3,0.7-0.5,1-0.7
c0.2-0.1,0.3-0.2,0.1-0.4c-0.1-0.1-0.1-0.3-0.2-0.4c-0.1-0.1-0.1-0.1-0.2-0.2l0,0c-0.1-0.1-0.1-0.3-0.2-0.4l0,0
c-0.1-0.9-0.5-1.79-0.6-2.69c-0.1-0.4-0.1-0.9-0.1-1.29c0-0.1,0.1-0.3,0.2-0.4c0.3,1.39,0.4,2.79,0.89,4.08
C121.16,55.72,121.36,56.32,122.16,56.32z"/>
<path fill="#4576A1" d="M120.07,49.35c0-0.2,0.1-0.3,0.2-0.4C120.26,49.15,120.26,49.25,120.07,49.35z"/>
<path fill="#4C81B2" d="M120.66,55.42c0.1,0.1,0.2,0.2,0.2,0.4C120.76,55.72,120.66,55.52,120.66,55.42z"/>
<path fill="#4C81B2" d="M120.86,55.82c0.1,0.1,0.1,0.1,0.2,0.2C120.96,55.92,120.96,55.82,120.86,55.82z"/>
</g>
</svg>
