<?xml version="1.0" encoding="utf-8"?>
<!DOCTYPE svg PUBLIC "-//W3C//DTD SVG 1.0//EN" "http://www.w3.org/TR/2001/REC-SVG-20010904/DTD/svg10.dtd">
<svg version="1.0" id="Layer_1" xmlns="http://www.w3.org/2000/svg" xmlns:xlink="http://www.w3.org/1999/xlink" x="0px" y="0px"
 width="649px" height="485px" viewBox="0 0 649 485" enable-background="new 0 0 649 485" xml:space="preserve">
<g id="FreeVector.com_BG">
<linearGradient id="SVGID_1_" gradientUnits="userSpaceOnUse" x1="935.5" y1="306.998" x2="935.5" y2="791.999" gradientTransform="matrix(1 0 0 1 -611 -306.999)">
<stop  offset="0" style="stop-color:#CCE0F4"/>
<stop  offset="0.0638" style="stop-color:#C3DCF2"/>
<stop  offset="0.1699" style="stop-color:#A9D2EE"/>
<stop  offset="0.3053" style="stop-color:#80C2E7"/>
<stop  offset="0.4629" style="stop-color:#47ACDE"/>
<stop  offset="0.5674" style="stop-color:#1D9CD7"/>
<stop  offset="0.8652" style="stop-color:#0074BD"/>
<stop  offset="0.9944" style="stop-color:#005C97"/>
</linearGradient>
<rect fill="url(#SVGID_1_)" width="649" height="485"/>
</g>
<g id="Vector_Graphics">
<linearGradient id="SVGID_2_" gradientUnits="userSpaceOnUse" x1="941.6504" y1="304.4883" x2="941.6504" y2="793.8608" gradientTransform="matrix(1 0 0 1 -611 -307)">
<stop  offset="0" style="stop-color:#2FB1D0"/>
<stop  offset="1" style="stop-color:#0A58A5"/>
</linearGradient>
<rect x="-21.5" y="-6.3" opacity="0.85" fill="url(#SVGID_2_)" enable-background="new    " width="704.3" height="495.6"/>
<linearGradient id="SVGID_3_" gradientUnits="userSpaceOnUse" x1="1225.8711" y1="547.6328" x2="980.816" y2="723.2698" gradientTransform="matrix(1 0 0 1 -611 -307)">
<stop  offset="0" style="stop-color:#00A0C6"/>
<stop  offset="0.9607" style="stop-color:#000000"/>
</linearGradient>
<path opacity="0.2" fill="url(#SVGID_3_)" enable-background="new    " d="M147,316.7C59.6,329,8.4,372.4-21.4,416.5v72.9h704.1
V399.6C474.4,311,328.5,291,147,316.7z"/>
<linearGradient id="SVGID_4_" gradientUnits="userSpaceOnUse" x1="968.4922" y1="303.7793" x2="983.6254" y2="642.3985" gradientTransform="matrix(1 0 0 1 -611 -307)">
<stop  offset="0" style="stop-color:#00A0C6"/>
<stop  offset="1" style="stop-color:#000000"/>
</linearGradient>
<path opacity="0.1" fill="url(#SVGID_4_)" enable-background="new    " d="M55.1,489.4c0,0,278.3-460.8,627.7-472.5v472.5H55.1z"/>
<g opacity="0.85">
<path fill="none" stroke="#0FA4C8" stroke-width="0.5" d="M-54.1-31.2c0,0,147.4-43.5,204.9,63.6
c57.4,107.1,57.4,173.8,164.5,186.2C422.4,231,309.2,68.3,265,13.6c-95.3-118.1,86-89.9,203.9,3.2c118,93.1,260,71.5,297.6,221"/>
<path fill="none" stroke="#1AA8CB" stroke-width="0.5" d="M-52.6-26.3c0,0,149.3-47.2,207.5,57.5c58.5,104.9,54.1,181.5,159,191.6
c104.3,10-3.2-150.6-44-206.5c-86.1-118,88.5-91.5,204,5.9c115.399,97.4,256,79.3,291.8,221.6"/>
<path fill="none" stroke="#26ADCD" stroke-width="0.5" d="M-51-21.4c0,0,151.2-50.9,210.2,51.4c59.5,102.7,50.8,189.2,153.5,196.9
c101.5,7.6-0.3-150.8-37.8-208.1c-77-117.6,91.1-93.2,204,8.5C591.8,129,731,114.3,765,249.6"/>
<path fill="none" stroke="#31B1D0" stroke-width="0.5" d="M-49.5-16.5c0,0,153-54.7,212.8,45.3c60.6,100.5,47.5,196.9,148,202.2
c98.7,5.2,2.7-150.8-31.6-209.7c-68-116.8,93.6-94.8,204,11.2C594.1,138.5,731.8,127.3,764.1,255.4"/>
<path fill="none" stroke="#3DB5D2" stroke-width="0.5" d="M-47.9-11.7c0,0,154.9-58.4,215.5,39.2C229.2,125.8,211.7,232.2,310,235
c95.9,2.8,5.8-150.5-25.3-211.3c-59.2-115.6,96.1-96.4,204,13.8C596.6,147.8,732.9,140.1,763.3,261.1"/>
<path fill="none" stroke="#48BAD5" stroke-width="0.5" d="M-46.4-6.8c0,0,156.5-62,218.1,33.1c62.4,96.3,40.8,210.2,136.899,212.9
c93,2.6,8.801-150.1-19.1-212.8c-50.6-114,98.7-98,204.1,16.5C599.1,157.4,733.9,153.1,762.5,267"/>
<path fill="none" stroke="#54BED8" stroke-width="0.5" d="M-44.8-1.9c0,0,158.4-65.7,220.8,26.9c63.4,94.1,37.4,220.2,131.4,218.2
c90.199-1.9,11.8-149.4-12.9-214.4C252.1-83.1,395.7-70.9,498.6,48C601.5,166.8,734.9,166.1,761.7,272.8"/>
<path fill="none" stroke="#5FC2DA" stroke-width="0.5" d="M-43.3,3c0,0,160.2-69.4,223.5,20.8c64.5,91.9,34.1,227.9,125.9,223.5
c87.4-4.2,14.7-148.6-6.6-216C264.8-78.3,403.2-70,503.6,53.2C603.9,176.3,735.9,179,761,278.6"/>
<path fill="none" stroke="#6AC7DD" stroke-width="0.5" d="M-41.7,7.8c0,0,162-73.1,226.1,14.7c65.5,89.8,30.7,235.7,120.4,228.8
c84.5-6.5,17.4-147.6-0.4-217.6C277.2-73.1,410.7-69.1,508.5,58.3C606.4,185.7,736.9,191.9,760.2,284.4"/>
<path fill="none" stroke="#76CBE0" stroke-width="0.5" d="M-40.2,12.7c0,0,163.9-76.8,228.8,8.6
C255.1,108.9,215.9,264.9,303.5,255.4c81.7-8.801,20-146.4,5.9-219.101C289.1-67.7,418.2-68.3,513.6,63.5
C608.9,195.2,738,204.8,759.5,290.3"/>
<path fill="none" stroke="#81CFE2" stroke-width="0.5" d="M-38.6,17.6c0,0,165.7-80.6,231.4,2.5c67.6,85.4,23.9,251.4,109.3,239.5
c78.8-11,22.4-145.1,12.1-220.7c-13.7-101,111.3-106.2,204.2,29.8C611.2,204.7,738.9,217.8,758.6,296.1"/>
<path fill="none" stroke="#8DD4E5" stroke-width="0.5" d="M-37.1,22.5c0,0,167.6-84.3,234.1-3.6c68.6,83.2,20.5,259.3,103.8,244.8
c75.9-13.2,24.4-143.8,18.3-222.3C311.5-56.4,433-66.4,523.3,73.9c90.3,140.3,216.5,156.9,234.4,228"/>
<path fill="none" stroke="#98D8E7" stroke-width="0.5" d="M-35.5,27.4c0,0,169.5-88,236.7-9.7c69.7,81,17.1,267.2,98.3,250.1
C372.6,252.4,325.7,125.4,324.1,44C322.2-50.7,440.5-65.5,528.3,79S740.9,243.6,757,307.7"/>
<path fill="none" stroke="#A4DCEA" stroke-width="0.5" d="M-34,32.2c0,0,171.3-91.8,239.4-15.9c70.7,78.8,13.7,275.2,92.8,255.4
C368.4,254.1,325.8,130.6,329,46.3c3.5-91.5,119-111.1,204.2,37.8c85.3,148.8,208.6,172.4,223,229.3"/>
<path fill="none" stroke="#AFE1ED" stroke-width="0.5" d="M-32.4,37.1c0,0,173.2-95.5,242.1-22C281.5,91.7,220,298.3,297,275.9
c67.4-19.7,28.6-139.9,37-227c8.6-88.5,121.5-112.7,204.3,40.5c82.8,153.1,204.7,180.1,217.2,230"/>
<path fill="none" stroke="#BAE5EF" stroke-width="0.5" d="M-30.9,42c0,0,175.1-99.2,244.7-28.1c72.8,74.4,7,291.2,81.7,266.1
c64.5-21.7,29.2-138.8,43.3-228.6c13.4-85.7,124-114.3,204.3,43.1C623.4,252,743.9,282.4,754.7,325.1"/>
<path fill="none" stroke="#C6E9F2" stroke-width="0.5" d="M-29.3,46.9c0,0,177-103,247.4-34.2C292,84.9,221.7,312,294.3,284.1
c61.7-23.8,29.5-138,49.5-230.1C361.9-29,470.4-61.9,548.1,99.8C625.9,261.4,744.9,295.4,753.9,331"/>
<path fill="none" stroke="#D1EEF5" stroke-width="0.5" d="M-27.7,51.7c0,0,178.9-106.7,250-40.3c75,70,0.3,307.5,70.7,276.7
C351.9,262.4,322.4,150.7,348.8,56.4C371.4-24.3,477.9-61.2,553.1,104.8c75.2,166,192.801,203.4,200,231.9"/>
<path fill="none" stroke="#DDF2F7" stroke-width="0.5" d="M-26.2,56.6c0,0,180.8-110.5,252.7-46.4c76.1,67.8-2.9,315.7,65.2,282
c56.2-27.7,28.899-137.1,62-233.3C380.7-19.7,485.3-60.3,558.1,110C630.8,280.3,747,321.2,752.4,342.5"/>
<path fill="none" stroke="#E8F6FA" stroke-width="0.5" d="M-24.6,61.5c0,0,182.8-114.4,255.3-52.5c77.2,65.4-6.2,323.9,59.7,287.4
C343.8,266.8,318.7,159.3,358.6,61.6C390-15.3,492.8-59.3,563,115.2S747.9,334.1,751.5,348.4"/>
<path fill="none" stroke="#F4FBFC" stroke-width="0.5" d="M-23.1,66.4c0,0,184.6-118.1,258-58.7c78.3,63.2-9.3,332.1,54.2,292.7
C339.9,268.8,316.5,162.9,363.6,64C399.4-11.3,500.3-58.4,568,120.4c67.7,178.9,181,226.7,182.8,233.8"/>
<path fill="none" stroke="#FFFFFF" stroke-width="0.5" d="M-21.5,71.3c0,0,186.5-121.9,260.6-64.8c79.3,61.1-12.4,340.4,48.6,298
c48.1-33.4,26.399-138.1,80.7-238C408.7-7.6,507.7-57.6,572.8,125.6C638,308.7,749.8,360,749.8,360"/>
</g>
<g opacity="0.85">
<path fill="none" stroke="#FFFFFF" stroke-width="0.5" d="M-99.4,292.1c0,0,80.3-55.2,116.7,1.301
C53.7,349.9,235.6,542.9,375.4,411.8C542,255.6,566.8,183.1,711.7,225.5"/>
<path fill="none" stroke="#F3F9FB" stroke-width="0.5" d="M-98,294.7c0,0,78.5-57.6,120.1,0.1c41.6,57.7,226.6,246.5,362.8,117.7
C547,259.4,567.4,182.8,710.8,222.2"/>
<path fill="none" stroke="#E7F2F8" stroke-width="0.5" d="M-96.7,297.2c0,0,76.7-60,123.5-1c46.8,59,235,243.5,367.601,117.1
C552,263.3,568.1,182.5,709.9,218.8"/>
<path fill="none" stroke="#DBECF4" stroke-width="0.5" d="M-95.3,299.7c0,0,74.9-62.4,126.9-2.2C83.6,357.8,274.9,538.1,404,414
c153-146.8,164.7-231.7,305-198.5"/>
<path fill="none" stroke="#D0E6F1" stroke-width="0.5" d="M-93.9,302.2c0,0,73.1-64.8,130.3-3.3
c57.2,61.5,251.7,237.5,377.2,115.8C562,271.1,569.4,182,708.1,212.1"/>
<path fill="none" stroke="#C4DFED" stroke-width="0.5" d="M-92.5,304.7c0,0,71.3-67.2,133.7-4.4c62.4,62.8,260,234.601,382,115.2
C567.1,275,570.2,181.8,707.3,208.8"/>
<path fill="none" stroke="#B8D9EA" stroke-width="0.5" d="M-91.2,307.2c0,0,69.6-69.6,137.1-5.601
c67.6,64,268.4,231.601,386.7,114.601C572,278.9,570.7,181.5,706.2,205.4"/>
<path fill="none" stroke="#ACD3E6" stroke-width="0.5" d="M-89.8,309.7c0,0,67.8-71.9,140.5-6.7
c72.8,65.3,276.7,228.6,391.5,113.9C577.1,282.7,571.4,181.1,705.4,202"/>
<path fill="none" stroke="#A0CCE2" stroke-width="0.5" d="M-88.4,312.2c0,0,66-74.3,143.9-7.8c78,66.5,285,225.6,396.3,113.3
c130.3-131,120.3-236.8,252.7-219"/>
<path fill="none" stroke="#94C6DF" stroke-width="0.5" d="M-87.1,314.7c0,0,64.2-76.7,147.4-9
c83.2,67.8,293.4,222.6,401.101,112.6C587.2,290.4,572.8,180.5,703.7,195.2"/>
<path fill="none" stroke="#88C0DB" stroke-width="0.5" d="M-85.7,317.2c0,0,62.4-79.1,150.8-10.101
c88.4,69,301.7,219.601,405.9,112C592.2,294.4,573.4,180.4,702.8,192"/>
<path fill="none" stroke="#7DB9D8" stroke-width="0.5" d="M-84.3,319.8c0,0,60.6-81.5,154.2-11.2C163.5,378.9,380,525.3,480.5,420
c116.7-121.6,93.6-239.8,221.4-231.2"/>
<path fill="none" stroke="#71B3D4" stroke-width="0.5" d="M-82.9,322.3c0,0,58.8-83.9,157.6-12.399
C173.5,381.4,393.1,523.6,490.1,420.6C602.3,302.2,574.8,179.8,701,185.3"/>
<path fill="none" stroke="#65ADD1" stroke-width="0.5" d="M-81.6,324.8c0,0,57-86.3,161-13.5C183.4,384,406.2,522,499.6,421.4
C607.3,306.1,575.4,179.6,700.1,182"/>
<path fill="none" stroke="#59A6CD" stroke-width="0.5" d="M-80.2,327.3c0,0,55.2-88.7,164.4-14.6c109.2,74,335.1,207.7,425,109.5
C612.3,310.1,576.1,179.4,699.2,178.7"/>
<path fill="none" stroke="#4DA0C9" stroke-width="0.5" d="M-78.8,329.8c0,0,53.4-91.1,167.8-15.8s343.5,204.7,429.8,108.8
C617.4,313.9,576.8,179,698.4,175.2"/>
<path fill="none" stroke="#419AC6" stroke-width="0.5" d="M-77.4,332.3c0,0,51.6-93.5,171.2-16.899
C213.4,392,445.6,517.2,528.3,423.6C622.4,317.8,577.4,178.8,697.5,171.9"/>
<path fill="none" stroke="#3593C2" stroke-width="0.5" d="M-76.1,334.8c0,0,49.8-95.8,174.6-18S458.7,515.6,537.8,424.4
C627.3,321.8,578,178.5,696.5,168.6"/>
<path fill="none" stroke="#2A8DBF" stroke-width="0.5" d="M-74.7,337.3c0,0,48-98.2,178-19.2C233.3,397.2,471.8,513.9,547.4,425
c85-99.5,31.3-246.9,148.3-259.9"/>
<path fill="none" stroke="#1E87BB" stroke-width="0.5" d="M-73.3,339.8c0,0,46.2-100.6,181.4-20.3
C243.3,399.8,485,512.3,557,425.8c80.5-96.3,22.4-247.9,137.8-264"/>
<path fill="none" stroke="#1280B8" stroke-width="0.5" d="M-71.9,342.3c0,0,44.5-103,184.8-21.5
C253.3,402.4,498.1,510.6,566.6,426.5c75.9-93.2,13.5-248.9,127.4-268"/>
<path fill="none" stroke="#067AB4" stroke-width="0.5" d="M-70.6,344.8c0,0,42.7-105.4,188.2-22.6C263.2,405,511.1,509,576,427.2
c71.4-90,4.7-249.9,116.9-272.1"/>
</g>
<g opacity="0.85">
<path fill="none" stroke="#13007C" stroke-width="0.25" d="M-69.8,290.4c0,0,53-48.8,87.5,1.399c36.2,52.8,30.7,80,51.1,97
C103,417.3,145.7,339.2,194,328c86.7-20.2,176.2,63.4,310.9,80.5c134.699,17.1,165-1.6,232.8-20.8"/>
<path fill="none" stroke="#13047E" stroke-width="0.25" d="M-69.9,290c0,0,53.4-49.2,89.2,0.2C57.1,342.3,50.1,370.3,69,388
c31.6,29.5,74-45,122.5-56.4c85.8-20,170.3,57.9,305.2,74.4c134.899,16.5,161.399,5.1,241-18.3"/>
<path fill="none" stroke="#120880" stroke-width="0.25" d="M-69.9,289.5c0,0,53.7-49.5,90.9-1c39.4,51.5,30.8,80.3,48.3,98.6
C98.4,417.7,140.4,346.7,189.2,335.2C274.1,315.3,353.6,387.6,488.7,403.6c135,16,157.899,11.7,249.2-15.8"/>
<path fill="none" stroke="#120C81" stroke-width="0.25" d="M-70,289c0,0,54.1-49.9,92.6-2.2c41.1,50.9,30.8,80.4,46.8,99.5
c26.5,31.601,68.3-35.8,117.2-47.399c83.9-19.7,158.5,46.899,293.8,62.3C615.6,416.6,634.8,419.6,737.8,387.9"/>
<path fill="none" stroke="#111083" stroke-width="0.25" d="M-70.1,288.5c0,0,54.4-50.3,94.3-3.4C66.9,335.3,55,365.5,69.6,385.4
c23.9,32.5,65.4-31.301,114.6-43c83-19.5,152.7,41.399,288,56.199C607.6,413.4,623,423.6,737.8,387.7"/>
<path fill="none" stroke="#111485" stroke-width="0.25" d="M-70.2,288c0,0,54.8-50.6,96-4.6C70.1,333,56.5,363.8,69.7,384.5
c21.3,33.3,62.5-26.7,111.9-38.5c82.1-19.4,146.8,35.9,282.3,50.2c135.5,14.2,147.3,31.7,273.699-8.4"/>
<path fill="none" stroke="#101787" stroke-width="0.25" d="M-70.2,287.5c0,0,55.2-51,97.6-5.8c46,49,30.7,80.399,42.5,101.899
c18.7,34.101,59.7-22.1,109.3-34.1c81.2-19.2,140.899,30.4,276.6,44.1c135.7,13.7,143.8,38.301,281.9-5.899"/>
<path fill="none" stroke="#101B89" stroke-width="0.25" d="M-70.3,287c0,0,55.6-51.4,99.3-7c47.7,48.3,30.6,80.2,41.1,102.7
c16.1,34.7,56.8-17.601,106.6-29.601c80.2-19.3,135,24.9,270.899,38c135.9,13.101,140.2,45,290.101-3.399"/>
<path fill="none" stroke="#0F1F8A" stroke-width="0.25" d="M-70.4,286.5c0,0,56-51.7,101-8.2C80,326,61.2,358.4,70.3,381.8
c13.6,35.3,53.9-13.1,104-25.1C253.6,337.6,303.5,376.1,439.5,388.6S576.2,440.2,737.8,387.7"/>
<path fill="none" stroke="#0F238C" stroke-width="0.25" d="M-70.5,286c0,0,56.4-52.1,102.7-9.4c51,47,30.6,79.9,38.2,104.4
c11.2,35.8,51-8.5,101.3-20.7c78.4-19,123.3,13.9,259.5,25.9c136.2,11.899,133.2,58.3,306.5,1.6"/>
<path fill="none" stroke="#0E278E" stroke-width="0.25" d="M-70.6,285.5c0,0,56.8-52.5,104.4-10.6
C86.5,321.3,64.4,354.5,70.6,380.1c8.8,36.301,48.2-3.899,98.7-16.199c77.5-18.801,117.4,8.399,253.8,19.8
c136.301,11.399,129.601,65,314.7,4"/>
<path fill="none" stroke="#0E2B90" stroke-width="0.25" d="M-70.6,285c0,0,57.3-52.9,106.1-11.8c54.4,45.7,30.6,79.3,35.3,106
c6.4,36.7,45.3,0.6,96-11.8C243.4,348.7,278.3,370.3,414.9,381.1C551.4,391.9,541,452.7,737.7,387.6"/>
<path fill="none" stroke="#0D2F92" stroke-width="0.25" d="M-70.7,284.6c0,0,57.7-53.3,107.8-13C93.2,316.7,67.9,350.6,71,378.4
c4.2,37.1,42.5,5.199,93.4-7.301c75.7-18.6,105.7-2.6,242.3,7.7c136.7,10.2,122.5,78.3,331,9"/>
<path fill="none" stroke="#0D3393" stroke-width="0.25" d="M-70.8,284.1c0,0,58.1-53.7,109.5-14.199
C96.5,314.3,69.6,348.6,71.2,377.6c2,37.4,39.6,9.801,90.7-2.8c74.7-18.399,99.8-8,236.6,1.601c136.8,9.6,119,84.899,339.2,11.5"
/>
<path fill="none" stroke="#0D3795" stroke-width="0.25" d="M-70.9,283.6c0,0,58.6-54.1,111.2-15.399
c59.5,43.7,31.1,78.399,31,108.5c-0.1,37.8,36.7,14.3,88.1,1.6c73.8-18.3,93.9-13.5,230.9-4.5c137,9.101,115.5,91.601,347.4,14"/>
<path fill="none" stroke="#0C3B97" stroke-width="0.25" d="M-70.9,283.1c0,0,59-54.5,112.9-16.6c61.2,43,31.4,78.1,29.6,109.3
c-2.2,38.2,33.9,18.9,85.4,6.101c72.9-18.101,88-19,225.2-10.601c137.2,8.5,111.899,98.2,355.6,16.4"/>
<path fill="none" stroke="#0C3E99" stroke-width="0.25" d="M-71,282.6c0,0,59.5-54.899,114.6-17.8
c62.9,42.3,31.7,77.8,28.1,110.101c-4.2,38.5,31,23.5,82.8,10.5c72-18,82.2-24.5,219.5-16.601c137.3,7.9,108.4,104.9,363.8,18.9"
/>
<path fill="none" stroke="#0B429B" stroke-width="0.25" d="M-71.1,282.1c0,0,59.9-55.3,116.3-19c64.7,41.7,32,77.5,26.7,110.9
c-6.2,39,28.1,28,80.1,15c71.1-17.8,76.3-30,213.8-22.7s104.9,111.5,371.9,21.4"/>
<path fill="none" stroke="#0B469C" stroke-width="0.25" d="M-71.2,281.6c0,0,60.4-55.8,118-20.199c66.4,41,32.4,77.199,25.3,111.8
C64,412.6,97.4,405.8,149.6,392.6c70.2-17.699,70.4-35.5,208.1-28.8c137.6,6.8,101.3,118.2,380,23.9"/>
<path fill="none" stroke="#0A4A9E" stroke-width="0.25" d="M-71.3,281.1c0,0,60.9-56.2,119.7-21.399c68.1,40.3,32.8,77,23.8,112.6
c-10,39.8,22.4,37.2,74.8,23.9c69.3-17.5,64.5-41,202.3-34.8c137.8,6.199,97.8,124.8,388.3,26.399"/>
<path fill="none" stroke="#0A4EA0" stroke-width="0.25" d="M-71.3,280.6c0,0,61.3-56.6,121.4-22.6c69.9,39.5,33.2,76.8,22.4,113.4
C60.6,411.7,92,413.2,144.7,399.8C213,382.4,203.4,353.3,341.3,358.9c138,5.6,94.3,131.5,396.5,28.899"/>
<path fill="none" stroke="#0952A2" stroke-width="0.25" d="M-71.4,280.1c0,0,61.8-57.1,123.1-23.8c71.6,38.8,33.7,76.601,21,114.2
c-13.8,40.8,16.7,46.3,69.5,32.8c67.4-17.2,52.8-52,190.899-47c138.101,5,90.7,138.101,404.7,31.3"/>
<path fill="none" stroke="#0956A4" stroke-width="0.25" d="M-71.5,279.6c0,0,62.3-57.5,124.8-25c73.3,38.101,34.2,76.4,19.5,115
C57.1,411,86.6,420.5,139.7,406.9c66.5-17.101,46.9-57.5,185.2-53c138.3,4.5,87.199,144.8,412.8,33.8"/>
<path fill="none" stroke="#085AA6" stroke-width="0.25" d="M-71.6,279.2c0,0,62.7-58,126.5-26.2C130,290.3,89.6,329.2,73,368.8
c-17.5,41.9,11,55.5,64.2,41.7c65.6-16.9,41-63,179.5-59.1c138.5,3.899,83.7,151.399,421,36.3"/>
<path fill="none" stroke="#085EA7" stroke-width="0.25" d="M-71.6,278.7c0,0,63.2-58.4,128.2-27.4
C133.4,287.9,91.7,327.5,73.3,368c-19.4,42.5,8.1,60.1,61.6,46.2c64.7-16.8,35.2-68.5,173.8-65.2c138.6,3.3,80.1,158.1,429.2,38.8
"/>
<path fill="none" stroke="#0762A9" stroke-width="0.25" d="M-71.7,278.2c0,0,63.7-58.9,129.9-28.601
c78.6,35.9,35.6,76.101,15.2,117.5c-21.3,43.2,5.2,64.601,58.9,50.7c63.8-16.6,29.3-74,168.1-71.3
c138.8,2.7,76.6,164.7,437.4,41.3"/>
<path fill="none" stroke="#0765AB" stroke-width="0.25" d="M-71.8,277.7c0,0,64.1-59.3,131.6-29.8c80.3,35.199,36.1,76,13.8,118.3
c-23.1,43.8,2.4,69.2,56.3,55.1c62.9-16.399,23.4-79.5,162.4-77.3c138.9,2.2,73,171.4,445.601,43.8"/>
<path fill="none" stroke="#0669AD" stroke-width="0.25" d="M-71.9,277.2c0,0,64.6-59.8,133.3-31C143.5,280.6,98,322.1,73.7,365.3
c-25,44.5-0.5,73.8,53.6,59.601c62-16.301,17.5-85,156.6-83.4s69.5,178.1,453.8,46.2"/>
<path fill="none" stroke="#066DAF" stroke-width="0.25" d="M-72,276.7c0,0,65.1-60.3,135-32.2c83.8,33.7,37.1,75.9,10.9,120
c-26.9,45.1-3.4,78.4,51,64C186,412.4,136.6,338,275.8,339c139.3,1,66,184.7,461.9,48.7"/>
<path fill="none" stroke="#0671B0" stroke-width="0.25" d="M-72,276.2c0,0,65.6-60.8,136.7-33.4c85.6,32.9,37.7,75.9,9.5,120.8
c-28.7,45.801-6.2,83,48.3,68.5c60.1-15.899,5.8-96,145.2-95.5C407.1,337,330.1,528,737.8,387.8"/>
<path fill="none" stroke="#0575B2" stroke-width="0.25" d="M-72.1,275.7c0,0,66-61.2,138.4-34.6c87.3,32.1,38.2,75.8,8,121.6
c-30.6,46.5-9.1,87.5,45.7,73c59.2-15.8-0.1-101.5,139.5-101.601c139.6-0.199,58.9,198,478.3,53.7"/>
<path fill="none" stroke="#0579B4" stroke-width="0.25" d="M-72.2,275.2c0,0,66.5-61.7,140-35.8c89,31.4,38.7,75.8,6.6,122.4
c-32.5,47.2-11.9,92.101,43,77.4c58.3-15.601-6-107,133.8-107.7c139.8-0.7,55.399,204.7,486.5,56.2"/>
<path fill="none" stroke="#047DB6" stroke-width="0.25" d="M-72.3,274.7c0,0,67-62.2,141.7-37c90.8,30.6,39.2,75.8,5.2,123.3
c-34.4,48-14.8,96.7,40.4,81.9c57.4-15.4-11.8-112.5,128.1-113.801C383,327.8,294.9,540.4,737.8,387.7"/>
<path fill="none" stroke="#0481B8" stroke-width="0.25" d="M-72.3,274.2c0,0,67.4-62.7,143.4-38.2c92.5,29.8,39.7,75.8,3.7,124.1
C38.5,408.8,57.1,461.4,112.5,446.4C169,431.1,94.8,328.5,234.9,326.6c140.1-1.899,48.3,218,502.8,61.101"/>
<path fill="none" stroke="#0385B9" stroke-width="0.25" d="M-72.4,273.8c0,0,67.9-63.2,145.1-39.4c94.3,29,40.2,75.9,2.3,124.9
c-38.2,49.4-20.5,105.9,35.1,90.8C165.7,435,86.5,326.7,226.7,324.2s44.8,224.6,511,63.6"/>
<path fill="none" stroke="#0389BB" stroke-width="0.25" d="M-72.5,273.3c0,0,68.4-63.7,146.8-40.6c96,28.2,40.6,75.899,0.9,125.7
c-40.1,50.199-23.4,110.5,32.4,95.3c54.7-14.9-29.5-128.9,110.9-132c140.4-3,41.2,231.3,519.2,66.1"/>
<path fill="none" stroke="#028CBD" stroke-width="0.25" d="M-72.6,272.8c0,0,68.8-64.2,148.5-41.8c97.8,27.4,41.1,75.9-0.6,126.5
c-42,51-26.2,115.1,29.8,99.7c53.8-14.8-35.4-134.4,105.2-138C350.9,315.6,248,557.1,737.7,387.8"/>
<path fill="none" stroke="#0290BF" stroke-width="0.25" d="M-72.6,272.3c0,0,69.3-64.7,150.2-43c99.5,26.601,41.6,76-2,127.4
c-43.9,51.7-29.1,119.8,27.1,104.2C155.6,446.4,61.5,321,202.2,316.8S236.4,561.4,737.8,387.9"/>
<path fill="none" stroke="#0194C1" stroke-width="0.25" d="M-72.7,271.8c0,0,69.8-65.2,151.9-44.2c101.2,25.8,42.1,76-3.5,128.2
C29.9,408.3,43.8,480.1,100.2,464.4C152.2,450.1,53.1,319,194,314.2c140.9-4.8,30.6,251.2,543.8,73.5"/>
<path fill="none" stroke="#0198C2" stroke-width="0.25" d="M-72.8,271.3c0,0,70.3-65.9,153.6-45.4c103,24.9,42.6,76-4.9,129
C28.1,408.2,41.1,483.8,97.7,468c51.1-14.2-53-150.9,88.1-156.3c141.101-5.3,27.1,257.899,551.9,76"/>
<path fill="none" stroke="#009CC4" stroke-width="0.25" d="M-72.9,270.8c0,0,70.7-66.3,155.3-46.6c104.7,24.1,43,76.1-6.3,129.8
c-49.7,54.1-37.6,133.5,19.2,117.5c50.2-14-58.9-156.4,82.4-162.3c141.2-5.9,23.5,264.5,560.1,78.5"/>
<path fill="none" stroke="#00A0C6" stroke-width="0.25" d="M-73,270.3c0,0,71.1-66.7,157-47.8c106.4,23.4,43.5,76.1-7.8,130.6
C24.6,408,35.7,491.2,92.7,475.1C141.9,461.2,28,313.2,169.4,306.7s20,271.2,568.3,81"/>
</g>
</g>
</svg>
